<?xml version="1.0" standalone="yes"?>

<svg version="1.1" viewBox="0.0 0.0 960.0 377.0" fill="none" stroke="none" stroke-linecap="square" stroke-miterlimit="10" xmlns="http://www.w3.org/2000/svg" xmlns:xlink="http://www.w3.org/1999/xlink"><clipPath id="p.0"><path d="m0 0l960.0 0l0 377.0l-960.0 0l0 -377.0z" clip-rule="nonzero"></path></clipPath><g clip-path="url(#p.0)"><path fill="#000000" fill-opacity="0.0" d="m0 0l960.0 0l0 377.95276l-960.0 0z" fill-rule="nonzero"></path><path fill="#000000" fill-opacity="0.0" d="m498.88715 60.417324c0 -12.499973 76.47241 -30.456642 152.94489 -24.99995c76.47241 5.4566956 152.94489 34.326744 152.94489 68.653496" fill-rule="nonzero"></path><path stroke="#ff0000" stroke-width="2.0" stroke-linejoin="round" stroke-linecap="butt" d="m498.88715 60.417324c0 -12.499977 76.47241 -30.456642 152.94489 -24.99995c38.236206 2.7283478 76.47241 11.310036 105.1496 23.500477c14.338562 6.0952187 26.287415 13.092632 34.65155 20.711658c4.182129 3.809517 7.4680176 7.774437 9.708435 11.859688c0.5601196 1.0213013 1.0548706 2.0501404 1.4819336 3.0859451c0.21350098 0.51789856 0.41015625 1.0375443 0.5895996 1.5588684c0.089660645 0.2606659 0.17510986 0.52173615 0.25616455 0.78323364l0.11218262 0.3721161" fill-rule="evenodd"></path><path fill="#ff0000" stroke="#ff0000" stroke-width="2.0" stroke-linecap="butt" d="m803.78143 97.28936l-2.551941 -1.8986664l3.1228027 5.787369l1.3278198 -6.440674z" fill-rule="evenodd"></path><path fill="#d9ead3" d="m701.46326 13.707349l43.753174 0c1.1514282 0 2.2556152 0.45738506 3.0697632 1.2715359c0.81414795 0.8141508 1.2715454 1.918376 1.2715454 3.0697584l0 21.70595l-48.094482 0z" fill-rule="nonzero"></path><path stroke="#000000" stroke-width="2.0" stroke-linejoin="round" stroke-linecap="butt" d="m701.46326 13.707349l43.753174 0c1.1514282 0 2.2556152 0.45738506 3.0697632 1.2715359c0.81414795 0.8141508 1.2715454 1.918376 1.2715454 3.0697584l0 21.70595l-48.094482 0z" fill-rule="nonzero"></path><path fill="#000000" d="m711.307 30.470972l0 -7.875l2.71875 0q0.921875 0 1.40625 0.109375q0.671875 0.15625 1.15625 0.5625q0.609375 0.53125 0.921875 1.359375q0.3125 0.8125 0.3125 1.859375q0 0.90625 -0.21875 1.59375q-0.203125 0.6875 -0.53125 1.140625q-0.328125 0.453125 -0.71875 0.71875q-0.390625 0.265625 -0.9375 0.40625q-0.546875 0.125 -1.265625 0.125l-2.84375 0zm1.046875 -0.921875l1.6875 0q0.765625 0 1.203125 -0.140625q0.453125 -0.15625 0.71875 -0.421875q0.375 -0.375 0.578125 -1.0q0.203125 -0.625 0.203125 -1.515625q0 -1.234375 -0.40625 -1.890625q-0.40625 -0.671875 -0.984375 -0.890625q-0.421875 -0.15625 -1.34375 -0.15625l-1.65625 0l0 6.015625zm6.1643677 -1.9375q0 -1.578125 0.890625 -2.34375q0.734375 -0.625 1.796875 -0.625q1.171875 0 1.90625 0.765625q0.75 0.765625 0.75 2.125q0 1.109375 -0.328125 1.75q-0.328125 0.625 -0.96875 0.96875q-0.625 0.34375 -1.359375 0.34375q-1.203125 0 -1.953125 -0.765625q-0.734375 -0.765625 -0.734375 -2.21875zm1.0 0q0 1.109375 0.46875 1.65625q0.484375 0.53125 1.21875 0.53125q0.71875 0 1.1875 -0.546875q0.484375 -0.546875 0.484375 -1.671875q0 -1.046875 -0.484375 -1.59375q-0.484375 -0.546875 -1.1875 -0.546875q-0.734375 0 -1.21875 0.546875q-0.46875 0.53125 -0.46875 1.625zm5.2858276 2.859375l0 -5.703125l0.875 0l0 0.796875q0.265625 -0.421875 0.703125 -0.671875q0.453125 -0.25 1.015625 -0.25q0.640625 0 1.046875 0.265625q0.40625 0.25 0.578125 0.734375q0.671875 -1.0 1.75 -1.0q0.859375 0 1.3125 0.46875q0.453125 0.46875 0.453125 1.4375l0 3.921875l-0.953125 0l0 -3.59375q0 -0.578125 -0.09375 -0.828125q-0.09375 -0.265625 -0.34375 -0.421875q-0.25 -0.15625 -0.578125 -0.15625q-0.609375 0 -1.015625 0.40625q-0.390625 0.40625 -0.390625 1.28125l0 3.3125l-0.96875 0l0 -3.703125q0 -0.640625 -0.234375 -0.96875q-0.234375 -0.328125 -0.765625 -0.328125q-0.40625 0 -0.765625 0.21875q-0.34375 0.21875 -0.5 0.640625q-0.15625 0.40625 -0.15625 1.1875l0 2.953125l-0.96875 0z" fill-rule="nonzero"></path><path fill="#d9ead3" d="m736.96716 53.510498l43.753235 0c1.1513672 0 2.2556152 0.45738602 3.0697632 1.2715378c0.81414795 0.81414795 1.2715454 1.9183731 1.2715454 3.0697556l0 21.705948l-48.094543 0z" fill-rule="nonzero"></path><path stroke="#000000" stroke-width="2.0" stroke-linejoin="round" stroke-linecap="butt" d="m736.96716 53.510498l43.753235 0c1.1513672 0 2.2556152 0.45738602 3.0697632 1.2715378c0.81414795 0.81414795 1.2715454 1.9183731 1.2715454 3.0697556l0 21.705948l-48.094543 0z" fill-rule="nonzero"></path><path fill="#000000" d="m747.57654 70.274124l-0.890625 0l0 -7.875004l0.96875 0l0 2.8125038q0.609375 -0.765625 1.5625 -0.765625q0.53125 0 1.0 0.21875q0.46875 0.203125 0.765625 0.59375q0.3125 0.375 0.484375 0.921875q0.171875 0.53125 0.171875 1.15625q0 1.46875 -0.734375 2.265625q-0.71875 0.796875 -1.734375 0.796875q-1.015625 0 -1.59375 -0.84375l0 0.71875zm0 -2.890625q0 1.015625 0.28125 1.484375q0.453125 0.734375 1.234375 0.734375q0.625 0 1.078125 -0.546875q0.46875 -0.546875 0.46875 -1.640625q0 -1.109375 -0.4375 -1.640625q-0.4375 -0.53125 -1.078125 -0.53125q-0.625 0 -1.09375 0.546875q-0.453125 0.546875 -0.453125 1.59375zm4.6765137 0.03125q0 -1.578125 0.890625 -2.34375q0.734375 -0.625 1.796875 -0.625q1.171875 0 1.90625 0.765625q0.75 0.765625 0.75 2.125q0 1.109375 -0.328125 1.75q-0.328125 0.625 -0.96875 0.96875q-0.625 0.34375 -1.359375 0.34375q-1.203125 0 -1.953125 -0.765625q-0.734375 -0.765625 -0.734375 -2.21875zm1.0 0q0 1.109375 0.46875 1.65625q0.484375 0.53125 1.21875 0.53125q0.71875 0 1.1875 -0.546875q0.484375 -0.546875 0.484375 -1.671875q0 -1.046875 -0.484375 -1.59375q-0.484375 -0.546875 -1.1875 -0.546875q-0.734375 0 -1.21875 0.546875q-0.46875 0.53125 -0.46875 1.625zm8.989014 2.859375l0 -0.71875q-0.53125 0.84375 -1.59375 0.84375q-0.671875 0 -1.25 -0.375q-0.578125 -0.375 -0.890625 -1.046875q-0.3125 -0.671875 -0.3125 -1.546875q0 -0.859375 0.28125 -1.546875q0.296875 -0.703125 0.859375 -1.0625q0.5625 -0.375 1.265625 -0.375q0.515625 0 0.921875 0.21875q0.40625 0.21875 0.65625 0.5625l0 -2.8281288l0.96875 0l0 7.875004l-0.90625 0zm-3.046875 -2.84375q0 1.09375 0.453125 1.640625q0.46875 0.53125 1.09375 0.53125q0.640625 0 1.078125 -0.515625q0.4375 -0.515625 0.4375 -1.578125q0 -1.171875 -0.453125 -1.71875q-0.4375 -0.546875 -1.109375 -0.546875q-0.640625 0 -1.078125 0.53125q-0.421875 0.515625 -0.421875 1.65625zm5.2390137 5.046875l-0.109375 -0.90625q0.3125 0.078125 0.546875 0.078125q0.328125 0 0.515625 -0.109375q0.203125 -0.109375 0.3125 -0.296875q0.09375 -0.140625 0.296875 -0.71875q0.03125 -0.078125 0.09375 -0.234375l-2.171875 -5.71875l1.046875 0l1.1875 3.296875q0.234375 0.640625 0.40625 1.328125q0.171875 -0.671875 0.40625 -1.296875l1.21875 -3.328125l0.96875 0l-2.171875 5.796875q-0.34375 0.9375 -0.546875 1.296875q-0.25 0.484375 -0.59375 0.703125q-0.328125 0.21875 -0.78125 0.21875q-0.28125 0 -0.625 -0.109375z" fill-rule="nonzero"></path><path fill="#d9ead3" d="m785.06323 104.07218l35.091797 0c1.1513672 0 2.2556152 0.4573822 3.0697632 1.2715302c0.81414795 0.8141556 1.2715454 1.9183807 1.2715454 3.0697632l0 21.70594l-39.433105 0z" fill-rule="nonzero"></path><path stroke="#000000" stroke-width="2.0" stroke-linejoin="round" stroke-linecap="butt" d="m785.06323 104.07218l35.091797 0c1.1513672 0 2.2556152 0.4573822 3.0697632 1.2715302c0.81414795 0.8141556 1.2715454 1.9183807 1.2715454 3.0697632l0 21.70594l-39.433105 0z" fill-rule="nonzero"></path><path fill="#000000" d="m798.4851 120.8358l0 -0.71875q-0.53125 0.84375 -1.59375 0.84375q-0.671875 0 -1.25 -0.375q-0.578125 -0.375 -0.890625 -1.046875q-0.3125 -0.671875 -0.3125 -1.546875q0 -0.859375 0.28125 -1.546875q0.296875 -0.703125 0.859375 -1.0625q0.5625 -0.375 1.265625 -0.375q0.515625 0 0.921875 0.21875q0.40625 0.21875 0.65625 0.5625l0 -2.828125l0.96875 0l0 7.875l-0.90625 0zm-3.046875 -2.84375q0 1.09375 0.453125 1.640625q0.46875 0.53125 1.09375 0.53125q0.640625 0 1.078125 -0.515625q0.4375 -0.515625 0.4375 -1.578125q0 -1.171875 -0.453125 -1.71875q-0.4375 -0.546875 -1.109375 -0.546875q-0.640625 0 -1.078125 0.53125q-0.421875 0.515625 -0.421875 1.65625zm5.2858887 -3.921875l0 -1.109375l0.96875 0l0 1.109375l-0.96875 0zm0 6.765625l0 -5.703125l0.96875 0l0 5.703125l-0.96875 0zm3.9456177 0l-2.171875 -5.703125l1.015625 0l1.234375 3.421875q0.1875 0.546875 0.359375 1.140625q0.125 -0.453125 0.359375 -1.078125l1.265625 -3.484375l1.0 0l-2.15625 5.703125l-0.90625 0z" fill-rule="nonzero"></path><path fill="#d9ead3" d="m816.0696 227.16405l71.753174 0c1.1513672 0 2.2556152 0.4573822 3.0697632 1.2715302c0.81414795 0.81414795 1.2715454 1.9183807 1.2715454 3.0697632l0 21.705948l-76.09448 0z" fill-rule="nonzero"></path><path stroke="#000000" stroke-width="2.0" stroke-linejoin="round" stroke-linecap="butt" d="m816.0696 227.16405l71.753174 0c1.1513672 0 2.2556152 0.4573822 3.0697632 1.2715302c0.81414795 0.81414795 1.2715454 1.9183807 1.2715454 3.0697632l0 21.705948l-76.09448 0z" fill-rule="nonzero"></path><path fill="#000000" d="m825.80396 237.16203l0 -1.109375l0.96875 0l0 1.109375l-0.96875 0zm0 6.765625l0 -5.703125l0.96875 0l0 5.703125l-0.96875 0zm2.3518066 0l0 -5.703125l0.875 0l0 0.8125q0.625 -0.9375 1.8125 -0.9375q0.515625 0 0.953125 0.1875q0.4375 0.171875 0.640625 0.484375q0.21875 0.296875 0.3125 0.703125q0.046875 0.28125 0.046875 0.953125l0 3.5l-0.96875 0l0 -3.46875q0 -0.59375 -0.109375 -0.875q-0.109375 -0.296875 -0.40625 -0.46875q-0.28125 -0.1875 -0.671875 -0.1875q-0.609375 0 -1.0625 0.390625q-0.453125 0.390625 -0.453125 1.5l0 3.109375l-0.96875 0zm5.9265137 0l0 -5.703125l0.875 0l0 0.8125q0.625 -0.9375 1.8125 -0.9375q0.515625 0 0.953125 0.1875q0.4375 0.171875 0.640625 0.484375q0.21875 0.296875 0.3125 0.703125q0.046875 0.28125 0.046875 0.953125l0 3.5l-0.96875 0l0 -3.46875q0 -0.59375 -0.109375 -0.875q-0.109375 -0.296875 -0.40625 -0.46875q-0.28125 -0.1875 -0.671875 -0.1875q-0.609375 0 -1.0625 0.390625q-0.453125 0.390625 -0.453125 1.5l0 3.109375l-0.96875 0zm9.832764 -1.84375l1.0 0.125q-0.234375 0.875 -0.875 1.359375q-0.640625 0.484375 -1.625 0.484375q-1.25 0 -1.984375 -0.765625q-0.734375 -0.765625 -0.734375 -2.15625q0 -1.453125 0.734375 -2.234375q0.75 -0.796875 1.921875 -0.796875q1.15625 0 1.875 0.78125q0.71875 0.765625 0.71875 2.1875q0 0.078125 0 0.25l-4.25 0q0.046875 0.9375 0.515625 1.4375q0.484375 0.5 1.203125 0.5q0.53125 0 0.90625 -0.265625q0.375 -0.28125 0.59375 -0.90625zm-3.171875 -1.5625l3.1875 0q-0.0625 -0.71875 -0.359375 -1.078125q-0.46875 -0.546875 -1.203125 -0.546875q-0.671875 0 -1.125 0.453125q-0.453125 0.4375 -0.5 1.171875zm5.1921387 3.40625l0 -5.703125l0.859375 0l0 0.859375q0.34375 -0.609375 0.625 -0.796875q0.28125 -0.1875 0.609375 -0.1875q0.5 0 1.0 0.3125l-0.328125 0.890625q-0.359375 -0.203125 -0.71875 -0.203125q-0.3125 0 -0.5625 0.1875q-0.25 0.1875 -0.359375 0.53125q-0.15625 0.515625 -0.15625 1.125l0 2.984375l-0.96875 0zm3.704834 0l0 -7.875l1.046875 0l0 3.234375l4.09375 0l0 -3.234375l1.046875 0l0 7.875l-1.046875 0l0 -3.71875l-4.09375 0l0 3.71875l-1.046875 0zm9.679993 0l0 -6.9375l-2.59375 0l0 -0.9375l6.234375 0l0 0.9375l-2.609375 0l0 6.9375l-1.03125 0zm4.4624023 0l0 -7.875l1.578125 0l1.859375 5.578125q0.25 0.78125 0.375 1.15625q0.140625 -0.421875 0.421875 -1.25l1.875 -5.484375l1.40625 0l0 7.875l-1.0 0l0 -6.59375l-2.296875 6.59375l-0.9375 0l-2.265625 -6.703125l0 6.703125l-1.015625 0zm8.876709 0l0 -7.875l1.03125 0l0 6.953125l3.875 0l0 0.921875l-4.90625 0z" fill-rule="nonzero"></path><path fill="#000000" fill-opacity="0.0" d="m725.5105 39.754593l0 26.771652l11.464539 0" fill-rule="nonzero"></path><path stroke="#000000" stroke-width="2.0" stroke-linejoin="round" stroke-linecap="butt" d="m725.5105 39.754593l0 26.771652l11.464539 0" fill-rule="nonzero"></path><path fill="#000000" fill-opacity="0.0" d="m761.01447 79.55774l0 37.543312l24.062988 0" fill-rule="nonzero"></path><path stroke="#000000" stroke-width="2.0" stroke-linejoin="round" stroke-linecap="butt" d="m761.01447 79.55774l0 37.543312l24.062988 0" fill-rule="nonzero"></path><path fill="#000000" fill-opacity="0.0" d="m804.7798 130.11942l0 110.07875l11.275574 0" fill-rule="nonzero"></path><path stroke="#000000" stroke-width="2.0" stroke-linejoin="round" stroke-linecap="butt" d="m804.7798 130.11942l0 110.07875l11.275574 0" fill-rule="nonzero"></path><path fill="#d9ead3" d="m816.0696 149.43701l65.579956 0c1.1513672 0 2.2556152 0.4573822 3.0697632 1.2715302c0.81414795 0.81414795 1.2714844 1.9183807 1.2714844 3.0697632l0 21.705948l-69.9212 0z" fill-rule="nonzero"></path><path stroke="#000000" stroke-width="2.0" stroke-linejoin="round" stroke-linecap="butt" d="m816.0696 149.43701l65.579956 0c1.1513672 0 2.2556152 0.4573822 3.0697632 1.2715302c0.81414795 0.81414795 1.2714844 1.9183807 1.2714844 3.0697632l0 21.705948l-69.9212 0z" fill-rule="nonzero"></path><path fill="#000000" d="m825.05396 166.20062l3.03125 -7.875l1.109375 0l3.234375 7.875l-1.1875 0l-0.921875 -2.390625l-3.296875 0l-0.859375 2.390625l-1.109375 0zm2.265625 -3.234375l2.671875 0l-0.8125 -2.1875q-0.375 -0.984375 -0.5625 -1.625q-0.15625 0.75 -0.421875 1.5l-0.875 2.3125zm7.701355 2.375l0.125 0.84375q-0.40625 0.09375 -0.71875 0.09375q-0.53125 0 -0.828125 -0.171875q-0.28125 -0.171875 -0.40625 -0.4375q-0.109375 -0.265625 -0.109375 -1.140625l0 -3.28125l-0.71875 0l0 -0.75l0.71875 0l0 -1.40625l0.953125 -0.59375l0 2.0l0.984375 0l0 0.75l-0.984375 0l0 3.34375q0 0.40625 0.046875 0.53125q0.0625 0.109375 0.171875 0.1875q0.125 0.0625 0.328125 0.0625q0.171875 0 0.4375 -0.03125zm2.9606323 0l0.125 0.84375q-0.40625 0.09375 -0.71875 0.09375q-0.53125 0 -0.828125 -0.171875q-0.28125 -0.171875 -0.40625 -0.4375q-0.109375 -0.265625 -0.109375 -1.140625l0 -3.28125l-0.71875 0l0 -0.75l0.71875 0l0 -1.40625l0.953125 -0.59375l0 2.0l0.984375 0l0 0.75l-0.984375 0l0 3.34375q0 0.40625 0.046875 0.53125q0.0625 0.109375 0.171875 0.1875q0.125 0.0625 0.328125 0.0625q0.171875 0 0.4375 -0.03125zm0.83569336 0.859375l0 -5.703125l0.859375 0l0 0.859375q0.34375 -0.609375 0.625 -0.796875q0.28125 -0.1875 0.609375 -0.1875q0.5 0 1.0 0.3125l-0.328125 0.890625q-0.359375 -0.203125 -0.71875 -0.203125q-0.3125 0 -0.5625 0.1875q-0.25 0.1875 -0.359375 0.53125q-0.15625 0.515625 -0.15625 1.125l0 2.984375l-0.96875 0zm3.564209 -6.765625l0 -1.109375l0.96875 0l0 1.109375l-0.96875 0zm0 6.765625l0 -5.703125l0.96875 0l0 5.703125l-0.96875 0zm3.2424927 0l-0.890625 0l0 -7.875l0.96875 0l0 2.8125q0.609375 -0.765625 1.5625 -0.765625q0.53125 0 1.0 0.21875q0.46875 0.203125 0.765625 0.59375q0.3125 0.375 0.484375 0.921875q0.171875 0.53125 0.171875 1.15625q0 1.46875 -0.734375 2.265625q-0.71875 0.796875 -1.734375 0.796875q-1.015625 0 -1.59375 -0.84375l0 0.71875zm0 -2.890625q0 1.015625 0.28125 1.484375q0.453125 0.734375 1.234375 0.734375q0.625 0 1.078125 -0.546875q0.46875 -0.546875 0.46875 -1.640625q0 -1.109375 -0.4375 -1.640625q-0.4375 -0.53125 -1.078125 -0.53125q-0.625 0 -1.09375 0.546875q-0.453125 0.546875 -0.453125 1.59375zm8.785889 2.890625l0 -0.84375q-0.671875 0.96875 -1.8125 0.96875q-0.5 0 -0.953125 -0.1875q-0.4375 -0.203125 -0.65625 -0.484375q-0.203125 -0.296875 -0.28125 -0.71875q-0.0625 -0.28125 -0.0625 -0.90625l0 -3.53125l0.96875 0l0 3.15625q0 0.765625 0.0625 1.03125q0.09375 0.375 0.375 0.59375q0.296875 0.21875 0.734375 0.21875q0.4375 0 0.8125 -0.21875q0.390625 -0.234375 0.546875 -0.609375q0.15625 -0.390625 0.15625 -1.109375l0 -3.0625l0.96875 0l0 5.703125l-0.859375 0zm4.3014526 -0.859375l0.125 0.84375q-0.40625 0.09375 -0.71875 0.09375q-0.53125 0 -0.828125 -0.171875q-0.28125 -0.171875 -0.40625 -0.4375q-0.109375 -0.265625 -0.109375 -1.140625l0 -3.28125l-0.71875 0l0 -0.75l0.71875 0l0 -1.40625l0.953125 -0.59375l0 2.0l0.984375 0l0 0.75l-0.984375 0l0 3.34375q0 0.40625 0.046875 0.53125q0.0625 0.109375 0.171875 0.1875q0.125 0.0625 0.328125 0.0625q0.171875 0 0.4375 -0.03125zm4.7419434 -0.984375l1.0 0.125q-0.234375 0.875 -0.875 1.359375q-0.640625 0.484375 -1.625 0.484375q-1.25 0 -1.984375 -0.765625q-0.734375 -0.765625 -0.734375 -2.15625q0 -1.453125 0.734375 -2.234375q0.75 -0.796875 1.921875 -0.796875q1.15625 0 1.875 0.78125q0.71875 0.765625 0.71875 2.1875q0 0.078125 0 0.25l-4.25 0q0.046875 0.9375 0.515625 1.4375q0.484375 0.5 1.203125 0.5q0.53125 0 0.90625 -0.265625q0.375 -0.28125 0.59375 -0.90625zm-3.171875 -1.5625l3.1875 0q-0.0625 -0.71875 -0.359375 -1.078125q-0.46875 -0.546875 -1.203125 -0.546875q-0.671875 0 -1.125 0.453125q-0.453125 0.4375 -0.5 1.171875zm4.8170776 1.703125l0.953125 -0.15625q0.078125 0.578125 0.4375 0.890625q0.375 0.296875 1.03125 0.296875q0.671875 0 0.984375 -0.265625q0.328125 -0.265625 0.328125 -0.640625q0 -0.328125 -0.28125 -0.515625q-0.203125 -0.125 -0.984375 -0.328125q-1.0625 -0.265625 -1.484375 -0.453125q-0.40625 -0.203125 -0.625 -0.546875q-0.203125 -0.34375 -0.203125 -0.765625q0 -0.390625 0.171875 -0.703125q0.171875 -0.328125 0.484375 -0.546875q0.21875 -0.171875 0.609375 -0.28125q0.390625 -0.109375 0.828125 -0.109375q0.671875 0 1.171875 0.1875q0.515625 0.1875 0.75 0.53125q0.25 0.328125 0.34375 0.875l-0.9375 0.125q-0.078125 -0.4375 -0.390625 -0.671875q-0.296875 -0.25 -0.859375 -0.25q-0.671875 0 -0.953125 0.21875q-0.28125 0.21875 -0.28125 0.515625q0 0.1875 0.109375 0.328125q0.125 0.15625 0.375 0.265625q0.140625 0.046875 0.859375 0.25q1.015625 0.265625 1.421875 0.4375q0.40625 0.171875 0.640625 0.515625q0.234375 0.328125 0.234375 0.828125q0 0.484375 -0.28125 0.90625q-0.28125 0.421875 -0.8125 0.65625q-0.53125 0.234375 -1.203125 0.234375q-1.109375 0 -1.703125 -0.453125q-0.578125 -0.46875 -0.734375 -1.375z" fill-rule="nonzero"></path><path fill="#000000" fill-opacity="0.0" d="m804.7798 130.11942l0 32.346466l11.275574 0" fill-rule="nonzero"></path><path stroke="#000000" stroke-width="2.0" stroke-linejoin="round" stroke-linecap="butt" d="m804.7798 130.11942l0 32.346466l11.275574 0" fill-rule="nonzero"></path><path fill="#d9d2e9" d="m877.85126 187.37138l60.02655 0l0 0c7.8636475 0 14.238342 6.246582 14.238342 13.952133c0 7.705551 -6.374695 13.952133 -14.238342 13.952133l-60.02655 0l0 0c-7.8636475 0 -14.238403 -6.246582 -14.238403 -13.952133c0 -7.705551 6.374756 -13.952133 14.238403 -13.952133z" fill-rule="nonzero"></path><path stroke="#000000" stroke-width="2.0" stroke-linejoin="round" stroke-linecap="butt" d="m877.85126 187.37138l60.02655 0l0 0c7.8636475 0 14.238342 6.246582 14.238342 13.952133c0 7.705551 -6.374695 13.952133 -14.238342 13.952133l-60.02655 0l0 0c-7.8636475 0 -14.238403 -6.246582 -14.238403 -13.952133c0 -7.705551 6.374756 -13.952133 14.238403 -13.952133z" fill-rule="nonzero"></path><path fill="#000000" d="m877.5184 198.2979l0 -1.109375l0.96875 0l0 1.109375l-0.96875 0zm0 6.765625l0 -5.703125l0.96875 0l0 5.703125l-0.96875 0zm6.0549927 0l0 -0.71875q-0.53125 0.84375 -1.59375 0.84375q-0.671875 0 -1.25 -0.375q-0.578125 -0.375 -0.890625 -1.046875q-0.3125 -0.671875 -0.3125 -1.546875q0 -0.859375 0.28125 -1.546875q0.296875 -0.703125 0.859375 -1.0625q0.5625 -0.375 1.265625 -0.375q0.515625 0 0.921875 0.21875q0.40625 0.21875 0.65625 0.5625l0 -2.828125l0.96875 0l0 7.875l-0.90625 0zm-3.046875 -2.84375q0 1.09375 0.453125 1.640625q0.46875 0.53125 1.09375 0.53125q0.640625 0 1.078125 -0.515625q0.4375 -0.515625 0.4375 -1.578125q0 -1.171875 -0.453125 -1.71875q-0.4375 -0.546875 -1.109375 -0.546875q-0.640625 0 -1.078125 0.53125q-0.421875 0.515625 -0.421875 1.65625zm10.363953 -1.78125l-5.203125 0l0 -0.90625l5.203125 0l0 0.90625zm0 2.390625l-5.203125 0l0 -0.90625l5.203125 0l0 0.90625zm0.8793335 -4.59375l0 -1.125l1.03125 0l0 0.890625q0 0.71875 -0.15625 1.03125q-0.234375 0.4375 -0.71875 0.65625l-0.25 -0.390625q0.296875 -0.109375 0.4375 -0.359375q0.140625 -0.265625 0.15625 -0.703125l-0.5 0zm1.65625 0l0 -1.125l1.046875 0l0 0.890625q0 0.71875 -0.171875 1.03125q-0.234375 0.4375 -0.71875 0.65625l-0.234375 -0.390625q0.296875 -0.109375 0.4375 -0.359375q0.140625 -0.265625 0.15625 -0.703125l-0.515625 0zm6.048645 4.984375l1.0 0.125q-0.234375 0.875 -0.875 1.359375q-0.640625 0.484375 -1.625 0.484375q-1.25 0 -1.984375 -0.765625q-0.734375 -0.765625 -0.734375 -2.15625q0 -1.453125 0.734375 -2.234375q0.75 -0.796875 1.921875 -0.796875q1.15625 0 1.875 0.78125q0.71875 0.765625 0.71875 2.1875q0 0.078125 0 0.25l-4.25 0q0.046875 0.9375 0.515625 1.4375q0.484375 0.5 1.203125 0.5q0.53125 0 0.90625 -0.265625q0.375 -0.28125 0.59375 -0.90625zm-3.171875 -1.5625l3.1875 0q-0.0625 -0.71875 -0.359375 -1.078125q-0.46875 -0.546875 -1.203125 -0.546875q-0.671875 0 -1.125 0.453125q-0.453125 0.4375 -0.5 1.171875zm5.1921387 3.40625l0 -5.703125l0.859375 0l0 0.859375q0.34375 -0.609375 0.625 -0.796875q0.28125 -0.1875 0.609375 -0.1875q0.5 0 1.0 0.3125l-0.328125 0.890625q-0.359375 -0.203125 -0.71875 -0.203125q-0.3125 0 -0.5625 0.1875q-0.25 0.1875 -0.359375 0.53125q-0.15625 0.515625 -0.15625 1.125l0 2.984375l-0.96875 0zm3.548584 0l0 -5.703125l0.859375 0l0 0.859375q0.34375 -0.609375 0.625 -0.796875q0.28125 -0.1875 0.609375 -0.1875q0.5 0 1.0 0.3125l-0.328125 0.890625q-0.359375 -0.203125 -0.71875 -0.203125q-0.3125 0 -0.5625 0.1875q-0.25 0.1875 -0.359375 0.53125q-0.15625 0.515625 -0.15625 1.125l0 2.984375l-0.96875 0zm3.298645 -6.828125l0 -1.125l1.03125 0l0 0.890625q0 0.71875 -0.15625 1.03125q-0.234375 0.4375 -0.71875 0.65625l-0.25 -0.390625q0.296875 -0.109375 0.4375 -0.359375q0.140625 -0.265625 0.15625 -0.703125l-0.5 0zm1.65625 0l0 -1.125l1.046875 0l0 0.890625q0 0.71875 -0.171875 1.03125q-0.234375 0.4375 -0.71875 0.65625l-0.234375 -0.390625q0.296875 -0.109375 0.4375 -0.359375q0.140625 -0.265625 0.15625 -0.703125l-0.515625 0z" fill-rule="nonzero"></path><path fill="#000000" fill-opacity="0.0" d="m851.0302 175.48425l0 25.826767l12.598389 0" fill-rule="nonzero"></path><path stroke="#000000" stroke-width="2.0" stroke-linejoin="round" stroke-linecap="butt" d="m851.0302 175.48425l0 25.826767l12.598389 0" fill-rule="nonzero"></path><path fill="#cfe2f3" d="m214.2231 22.183727l76.65083 0c1.1304932 0 2.2146912 0.44908905 3.0140686 1.2484722c0.79940796 0.79938316 1.2484741 1.8835812 1.2484741 3.01408l0 21.31225l-80.913376 0z" fill-rule="nonzero"></path><path stroke="#000000" stroke-width="2.0" stroke-linejoin="round" stroke-linecap="butt" d="m214.2231 22.183727l76.65083 0c1.1304932 0 2.2146912 0.44908905 3.0140686 1.2484722c0.79940796 0.79938316 1.2484741 1.8835812 1.2484741 3.01408l0 21.31225l-80.913376 0z" fill-rule="nonzero"></path><path fill="#000000" d="m229.69185 35.945503l1.046875 0.265625q-0.328125 1.28125 -1.1875 1.96875q-0.84375 0.671875 -2.078125 0.671875q-1.28125 0 -2.078125 -0.515625q-0.796875 -0.53125 -1.21875 -1.515625q-0.40625 -0.984375 -0.40625 -2.109375q0 -1.21875 0.46875 -2.140625q0.46875 -0.921875 1.328125 -1.390625q0.875 -0.484375 1.921875 -0.484375q1.1875 0 1.984375 0.609375q0.8125 0.59375 1.125 1.6875l-1.03125 0.25q-0.265625 -0.859375 -0.796875 -1.25q-0.515625 -0.390625 -1.296875 -0.390625q-0.921875 0 -1.53125 0.4375q-0.609375 0.421875 -0.859375 1.15625q-0.234375 0.734375 -0.234375 1.515625q0 1.0 0.28125 1.75q0.296875 0.75 0.90625 1.125q0.625 0.375 1.34375 0.375q0.875 0 1.484375 -0.5q0.609375 -0.515625 0.828125 -1.515625zm1.7268524 0.234375l0.984375 -0.078125q0.0625 0.578125 0.3125 0.96875q0.265625 0.375 0.796875 0.609375q0.53125 0.234375 1.203125 0.234375q0.609375 0 1.0625 -0.171875q0.453125 -0.1875 0.671875 -0.484375q0.234375 -0.3125 0.234375 -0.6875q0 -0.375 -0.21875 -0.640625q-0.21875 -0.28125 -0.71875 -0.46875q-0.3125 -0.125 -1.40625 -0.375q-1.078125 -0.265625 -1.515625 -0.5q-0.5625 -0.296875 -0.84375 -0.734375q-0.265625 -0.4375 -0.265625 -0.984375q0 -0.59375 0.328125 -1.109375q0.34375 -0.515625 0.984375 -0.78125q0.65625 -0.28125 1.453125 -0.28125q0.875 0 1.546875 0.296875q0.671875 0.28125 1.03125 0.828125q0.359375 0.546875 0.390625 1.234375l-1.0 0.078125q-0.078125 -0.75 -0.546875 -1.125q-0.46875 -0.390625 -1.375 -0.390625q-0.9375 0 -1.375 0.359375q-0.4375 0.34375 -0.4375 0.828125q0 0.421875 0.3125 0.703125q0.296875 0.265625 1.5625 0.5625q1.28125 0.28125 1.75 0.5q0.6875 0.3125 1.015625 0.796875q0.328125 0.484375 0.328125 1.125q0 0.625 -0.359375 1.1875q-0.359375 0.546875 -1.046875 0.859375q-0.671875 0.3125 -1.515625 0.3125q-1.0625 0 -1.78125 -0.3125q-0.71875 -0.3125 -1.140625 -0.9375q-0.40625 -0.625 -0.421875 -1.421875zm7.1076355 0l0.984375 -0.078125q0.0625 0.578125 0.3125 0.96875q0.265625 0.375 0.796875 0.609375q0.53125 0.234375 1.203125 0.234375q0.609375 0 1.0625 -0.171875q0.453125 -0.1875 0.671875 -0.484375q0.234375 -0.3125 0.234375 -0.6875q0 -0.375 -0.21875 -0.640625q-0.21875 -0.28125 -0.71875 -0.46875q-0.3125 -0.125 -1.40625 -0.375q-1.078125 -0.265625 -1.515625 -0.5q-0.5625 -0.296875 -0.84375 -0.734375q-0.265625 -0.4375 -0.265625 -0.984375q0 -0.59375 0.328125 -1.109375q0.34375 -0.515625 0.984375 -0.78125q0.65625 -0.28125 1.453125 -0.28125q0.875 0 1.546875 0.296875q0.671875 0.28125 1.03125 0.828125q0.359375 0.546875 0.390625 1.234375l-1.0 0.078125q-0.078125 -0.75 -0.546875 -1.125q-0.46875 -0.390625 -1.375 -0.390625q-0.9375 0 -1.375 0.359375q-0.4375 0.34375 -0.4375 0.828125q0 0.421875 0.3125 0.703125q0.296875 0.265625 1.5625 0.5625q1.28125 0.28125 1.75 0.5q0.6875 0.3125 1.015625 0.796875q0.328125 0.484375 0.328125 1.125q0 0.625 -0.359375 1.1875q-0.359375 0.546875 -1.046875 0.859375q-0.671875 0.3125 -1.515625 0.3125q-1.0625 0 -1.78125 -0.3125q-0.71875 -0.3125 -1.140625 -0.9375q-0.40625 -0.625 -0.421875 -1.421875zm6.9513855 0.171875l0 -0.96875l2.96875 0l0 0.96875l-2.96875 0zm4.0642395 2.359375l0 -7.875l3.5 0q1.046875 0 1.59375 0.21875q0.546875 0.203125 0.875 0.75q0.328125 0.53125 0.328125 1.1875q0 0.828125 -0.546875 1.40625q-0.53125 0.578125 -1.671875 0.734375q0.421875 0.1875 0.625 0.390625q0.46875 0.421875 0.875 1.046875l1.359375 2.140625l-1.296875 0l-1.046875 -1.640625q-0.453125 -0.703125 -0.75 -1.078125q-0.296875 -0.375 -0.53125 -0.53125q-0.234375 -0.15625 -0.46875 -0.203125q-0.1875 -0.046875 -0.59375 -0.046875l-1.203125 0l0 3.5l-1.046875 0zm1.046875 -4.40625l2.234375 0q0.71875 0 1.125 -0.140625q0.40625 -0.140625 0.609375 -0.46875q0.203125 -0.328125 0.203125 -0.703125q0 -0.5625 -0.40625 -0.921875q-0.390625 -0.359375 -1.265625 -0.359375l-2.5 0l0 2.59375zm10.258087 4.40625l0 -0.84375q-0.671875 0.96875 -1.8125 0.96875q-0.5 0 -0.953125 -0.1875q-0.4375 -0.203125 -0.65625 -0.484375q-0.203125 -0.296875 -0.28125 -0.71875q-0.0625 -0.28125 -0.0625 -0.90625l0 -3.53125l0.96875 0l0 3.15625q0 0.765625 0.0625 1.03125q0.09375 0.375 0.375 0.59375q0.296875 0.21875 0.734375 0.21875q0.4375 0 0.8125 -0.21875q0.390625 -0.234375 0.546875 -0.609375q0.15625 -0.390625 0.15625 -1.109375l0 -3.0625l0.96875 0l0 5.703125l-0.859375 0zm2.1608887 0l0 -7.875l0.96875 0l0 7.875l-0.96875 0zm6.289337 -1.84375l1.0 0.125q-0.234375 0.875 -0.875 1.359375q-0.640625 0.484375 -1.625 0.484375q-1.25 0 -1.984375 -0.765625q-0.734375 -0.765625 -0.734375 -2.15625q0 -1.453125 0.734375 -2.234375q0.75 -0.796875 1.921875 -0.796875q1.15625 0 1.875 0.78125q0.71875 0.765625 0.71875 2.1875q0 0.078125 0 0.25l-4.25 0q0.046875 0.9375 0.515625 1.4375q0.484375 0.5 1.203125 0.5q0.53125 0 0.90625 -0.265625q0.375 -0.28125 0.59375 -0.90625zm-3.171875 -1.5625l3.1875 0q-0.0625 -0.71875 -0.359375 -1.078125q-0.46875 -0.546875 -1.203125 -0.546875q-0.671875 0 -1.125 0.453125q-0.453125 0.4375 -0.5 1.171875z" fill-rule="nonzero"></path><path fill="#cfe2f3" d="m292.3727 60.417324l122.09964 0c1.1304932 0 2.2146912 0.44908905 3.0140991 1.2484703c0.79937744 0.7993851 1.2484436 1.8835831 1.2484436 3.0140839l0 21.312248l-126.36218 0z" fill-rule="nonzero"></path><path stroke="#000000" stroke-width="2.0" stroke-linejoin="round" stroke-linecap="butt" d="m292.3727 60.417324l122.09964 0c1.1304932 0 2.2146912 0.44908905 3.0140991 1.2484703c0.79937744 0.7993851 1.2484436 1.8835831 1.2484436 3.0140839l0 21.312248l-126.36218 0z" fill-rule="nonzero"></path><path fill="#000000" d="m301.8727 74.413475l0.984375 -0.078125q0.0625 0.578125 0.3125 0.96875q0.265625 0.375 0.796875 0.609375q0.53125 0.234375 1.203125 0.234375q0.609375 0 1.0625 -0.171875q0.453125 -0.1875 0.671875 -0.484375q0.234375 -0.3125 0.234375 -0.6875q0 -0.375 -0.21875 -0.640625q-0.21875 -0.28125 -0.71875 -0.46875q-0.3125 -0.125 -1.40625 -0.375q-1.078125 -0.265625 -1.515625 -0.5q-0.5625 -0.296875 -0.84375 -0.734375q-0.265625 -0.4375 -0.265625 -0.984375q0 -0.59375 0.328125 -1.109375q0.34375 -0.515625 0.984375 -0.78125q0.65625 -0.28125 1.453125 -0.28125q0.875 0 1.546875 0.296875q0.671875 0.28125 1.03125 0.828125q0.359375 0.546875 0.390625 1.234375l-1.0 0.078125q-0.078125 -0.75 -0.546875 -1.125q-0.46875 -0.390625 -1.375 -0.390625q-0.9375 0 -1.375 0.359375q-0.4375 0.34375 -0.4375 0.828125q0 0.421875 0.3125 0.703125q0.296875 0.265625 1.5625 0.5625q1.28125 0.28125 1.75 0.5q0.6875 0.3125 1.015625 0.796875q0.328125 0.484375 0.328125 1.125q0 0.625 -0.359375 1.1875q-0.359375 0.546875 -1.046875 0.859375q-0.671875 0.3125 -1.515625 0.3125q-1.0625 0 -1.78125 -0.3125q-0.71875 -0.3125 -1.140625 -0.9375q-0.40625 -0.625 -0.421875 -1.421875zm11.2326355 0.6875l1.0 0.125q-0.234375 0.875 -0.875 1.359375q-0.640625 0.484375 -1.625 0.484375q-1.25 0 -1.984375 -0.765625q-0.734375 -0.765625 -0.734375 -2.15625q0 -1.453125 0.734375 -2.234375q0.75 -0.796875 1.921875 -0.796875q1.15625 0 1.875 0.78125q0.71875 0.765625 0.71875 2.1875q0 0.078125 0 0.25l-4.25 0q0.046875 0.9375 0.515625 1.4375q0.484375 0.5 1.203125 0.5q0.53125 0 0.90625 -0.265625q0.375 -0.28125 0.59375 -0.90625zm-3.171875 -1.5625l3.1875 0q-0.0625 -0.71875 -0.359375 -1.078125q-0.46875 -0.546875 -1.203125 -0.546875q-0.671875 0 -1.125 0.453125q-0.453125 0.4375 -0.5 1.171875zm5.176483 3.40625l0 -7.875l0.96875 0l0 7.875l-0.96875 0zm6.2893677 -1.84375l1.0 0.125q-0.234375 0.875 -0.875 1.359375q-0.640625 0.484375 -1.625 0.484375q-1.25 0 -1.984375 -0.765625q-0.734375 -0.765625 -0.734375 -2.15625q0 -1.453125 0.734375 -2.234375q0.75 -0.796875 1.921875 -0.796875q1.15625 0 1.875 0.78125q0.71875 0.765625 0.71875 2.1875q0 0.078125 0 0.25l-4.25 0q0.046875 0.9375 0.515625 1.4375q0.484375 0.5 1.203125 0.5q0.53125 0 0.90625 -0.265625q0.375 -0.28125 0.59375 -0.90625zm-3.171875 -1.5625l3.1875 0q-0.0625 -0.71875 -0.359375 -1.078125q-0.46875 -0.546875 -1.203125 -0.546875q-0.671875 0 -1.125 0.453125q-0.453125 0.4375 -0.5 1.171875zm8.926483 1.3125l0.9375 0.125q-0.140625 0.984375 -0.796875 1.546875q-0.640625 0.546875 -1.5625 0.546875q-1.171875 0 -1.890625 -0.765625q-0.703125 -0.765625 -0.703125 -2.1875q0 -0.921875 0.296875 -1.609375q0.3125 -0.703125 0.9375 -1.046875q0.625 -0.34375 1.359375 -0.34375q0.921875 0 1.515625 0.46875q0.59375 0.46875 0.765625 1.328125l-0.953125 0.140625q-0.125 -0.5625 -0.46875 -0.84375q-0.34375 -0.296875 -0.828125 -0.296875q-0.71875 0 -1.1875 0.53125q-0.453125 0.515625 -0.453125 1.640625q0 1.15625 0.4375 1.671875q0.4375 0.515625 1.15625 0.515625q0.5625 0 0.9375 -0.34375q0.390625 -0.34375 0.5 -1.078125zm3.71875 1.234375l0.125 0.84375q-0.40625 0.09375 -0.71875 0.09375q-0.53125 0 -0.828125 -0.171875q-0.28125 -0.171875 -0.40625 -0.4375q-0.109375 -0.265625 -0.109375 -1.140625l0 -3.28125l-0.71875 0l0 -0.75l0.71875 0l0 -1.40625l0.953125 -0.59375l0 2.0l0.984375 0l0 0.75l-0.984375 0l0 3.34375q0 0.40625 0.046875 0.53125q0.0625 0.109375 0.171875 0.1875q0.125 0.0625 0.328125 0.0625q0.171875 0 0.4375 -0.03125zm0.47628784 -2.0q0 -1.578125 0.890625 -2.34375q0.734375 -0.625 1.796875 -0.625q1.171875 0 1.90625 0.765625q0.75 0.765625 0.75 2.125q0 1.109375 -0.328125 1.75q-0.328125 0.625 -0.96875 0.96875q-0.625 0.34375 -1.359375 0.34375q-1.203125 0 -1.953125 -0.765625q-0.734375 -0.765625 -0.734375 -2.21875zm1.0 0q0 1.109375 0.46875 1.65625q0.484375 0.53125 1.21875 0.53125q0.71875 0 1.1875 -0.546875q0.484375 -0.546875 0.484375 -1.671875q0 -1.046875 -0.484375 -1.59375q-0.484375 -0.546875 -1.1875 -0.546875q-0.734375 0 -1.21875 0.546875q-0.46875 0.53125 -0.46875 1.625zm5.285858 2.859375l0 -5.703125l0.859375 0l0 0.859375q0.34375 -0.609375 0.625 -0.796875q0.28125 -0.1875 0.609375 -0.1875q0.5 0 1.0 0.3125l-0.328125 0.890625q-0.359375 -0.203125 -0.71875 -0.203125q-0.3125 0 -0.5625 0.1875q-0.25 0.1875 -0.359375 0.53125q-0.15625 0.515625 -0.15625 1.125l0 2.984375l-0.96875 0zm8.368652 2.3125q-0.8125 -1.0 -1.359375 -2.359375q-0.546875 -1.359375 -0.546875 -2.8125q0 -1.265625 0.40625 -2.4375q0.484375 -1.359375 1.5 -2.71875l0.6875 0q-0.65625 1.125 -0.859375 1.609375q-0.328125 0.734375 -0.515625 1.546875q-0.234375 1.0 -0.234375 2.015625q0 2.578125 1.609375 5.15625l-0.6875 0zm1.5173645 -2.171875l0.46875 -2.296875l-0.90625 0l0 -0.796875l1.078125 0l0.390625 -1.953125l-1.46875 0l0 -0.796875l1.625 0l0.46875 -2.3125l0.8125 0l-0.46875 2.3125l1.6875 0l0.46875 -2.3125l0.8125 0l-0.46875 2.3125l0.9375 0l0 0.796875l-1.09375 0l-0.40625 1.953125l1.5 0l0 0.796875l-1.65625 0l-0.46875 2.296875l-0.8125 0l0.46875 -2.296875l-1.6875 0l-0.46875 2.296875l-0.8125 0zm1.4375 -3.09375l1.6875 0l0.40625 -1.953125l-1.6875 0l-0.40625 1.953125zm8.567108 1.109375l1.0 0.125q-0.234375 0.875 -0.875 1.359375q-0.640625 0.484375 -1.625 0.484375q-1.25 0 -1.984375 -0.765625q-0.734375 -0.765625 -0.734375 -2.15625q0 -1.453125 0.734375 -2.234375q0.75 -0.796875 1.921875 -0.796875q1.15625 0 1.875 0.78125q0.71875 0.765625 0.71875 2.1875q0 0.078125 0 0.25l-4.25 0q0.046875 0.9375 0.515625 1.4375q0.484375 0.5 1.203125 0.5q0.53125 0 0.90625 -0.265625q0.375 -0.28125 0.59375 -0.90625zm-3.171875 -1.5625l3.1875 0q-0.0625 -0.71875 -0.359375 -1.078125q-0.46875 -0.546875 -1.203125 -0.546875q-0.671875 0 -1.125 0.453125q-0.453125 0.4375 -0.5 1.171875zm5.1921387 3.40625l0 -5.703125l0.859375 0l0 0.859375q0.34375 -0.609375 0.625 -0.796875q0.28125 -0.1875 0.609375 -0.1875q0.5 0 1.0 0.3125l-0.328125 0.890625q-0.359375 -0.203125 -0.71875 -0.203125q-0.3125 0 -0.5625 0.1875q-0.25 0.1875 -0.359375 0.53125q-0.15625 0.515625 -0.15625 1.125l0 2.984375l-0.96875 0zm3.5486145 0l0 -5.703125l0.859375 0l0 0.859375q0.34375 -0.609375 0.625 -0.796875q0.28125 -0.1875 0.609375 -0.1875q0.5 0 1.0 0.3125l-0.328125 0.890625q-0.359375 -0.203125 -0.71875 -0.203125q-0.3125 0 -0.5625 0.1875q-0.25 0.1875 -0.359375 0.53125q-0.15625 0.515625 -0.15625 1.125l0 2.984375l-0.96875 0zm4.1892395 2.3125l-0.6875 0q1.59375 -2.578125 1.59375 -5.15625q0 -1.015625 -0.21875 -2.0q-0.1875 -0.8125 -0.515625 -1.546875q-0.203125 -0.484375 -0.859375 -1.625l0.6875 0q1.015625 1.359375 1.5 2.71875q0.40625 1.171875 0.40625 2.4375q0 1.453125 -0.5625 2.8125q-0.546875 1.359375 -1.34375 2.359375z" fill-rule="nonzero"></path><path fill="#cfe2f3" d="m295.13516 102.3189l126.36221 0l0 25.574799l-126.36221 0z" fill-rule="nonzero"></path><path stroke="#000000" stroke-width="2.0" stroke-linejoin="round" stroke-linecap="butt" d="m295.13516 102.3189l126.36221 0l0 25.574799l-126.36221 0z" fill-rule="nonzero"></path><path fill="#000000" d="m304.44766 115.56505q0.40625 -0.015625 0.65625 -0.21875q0.265625 -0.21875 0.34375 -0.59375q0.09375 -0.375 0.09375 -1.265625q0.015625 -0.890625 0.046875 -1.1875q0.046875 -0.453125 0.171875 -0.71875q0.140625 -0.28125 0.328125 -0.4375q0.203125 -0.171875 0.5 -0.25q0.203125 -0.0625 0.65625 -0.0625l0.3125 0l0 0.84375l-0.171875 0q-0.5625 0 -0.75 0.203125q-0.171875 0.203125 -0.171875 0.90625q0 1.40625 -0.0625 1.78125q-0.09375 0.5625 -0.328125 0.875q-0.234375 0.3125 -0.734375 0.5625q0.59375 0.25 0.859375 0.765625q0.265625 0.5 0.265625 1.640625q0 1.0625 0.015625 1.25q0.046875 0.375 0.21875 0.515625q0.171875 0.140625 0.6875 0.140625l0.171875 0l0 0.84375l-0.3125 0q-0.515625 0 -0.75 -0.078125q-0.34375 -0.125 -0.578125 -0.40625q-0.21875 -0.28125 -0.296875 -0.703125q-0.0625 -0.421875 -0.078125 -1.390625q0 -0.96875 -0.09375 -1.328125q-0.078125 -0.375 -0.34375 -0.59375q-0.25 -0.21875 -0.65625 -0.21875l0 -0.875zm7.050934 3.28125l0 -7.875l2.96875 0q0.796875 0 1.203125 0.078125q0.578125 0.09375 0.96875 0.375q0.390625 0.265625 0.625 0.75q0.25 0.484375 0.25 1.078125q0 1.0 -0.640625 1.703125q-0.640625 0.6875 -2.3125 0.6875l-2.015625 0l0 3.203125l-1.046875 0zm1.046875 -4.125l2.03125 0q1.015625 0 1.4375 -0.375q0.421875 -0.375 0.421875 -1.0625q0 -0.5 -0.25 -0.84375q-0.25 -0.359375 -0.65625 -0.46875q-0.265625 -0.0625 -0.96875 -0.0625l-2.015625 0l0 2.8125zm5.9357605 4.125l0 -5.703125l0.859375 0l0 0.859375q0.34375 -0.609375 0.625 -0.796875q0.28125 -0.1875 0.609375 -0.1875q0.5 0 1.0 0.3125l-0.328125 0.890625q-0.359375 -0.203125 -0.71875 -0.203125q-0.3125 0 -0.5625 0.1875q-0.25 0.1875 -0.359375 0.53125q-0.15625 0.515625 -0.15625 1.125l0 2.984375l-0.96875 0zm3.1892395 -2.859375q0 -1.578125 0.890625 -2.34375q0.734375 -0.625 1.796875 -0.625q1.171875 0 1.90625 0.765625q0.75 0.765625 0.75 2.125q0 1.109375 -0.328125 1.75q-0.328125 0.625 -0.96875 0.96875q-0.625 0.34375 -1.359375 0.34375q-1.203125 0 -1.953125 -0.765625q-0.734375 -0.765625 -0.734375 -2.21875zm1.0 0q0 1.109375 0.46875 1.65625q0.484375 0.53125 1.21875 0.53125q0.71875 0 1.1875 -0.546875q0.484375 -0.546875 0.484375 -1.671875q0 -1.046875 -0.484375 -1.59375q-0.484375 -0.546875 -1.1875 -0.546875q-0.734375 0 -1.21875 0.546875q-0.46875 0.53125 -0.46875 1.625zm5.285858 5.046875l0 -7.890625l0.890625 0l0 0.734375q0.3125 -0.421875 0.703125 -0.640625q0.390625 -0.21875 0.953125 -0.21875q0.71875 0 1.28125 0.375q0.5625 0.375 0.84375 1.0625q0.28125 0.671875 0.28125 1.5q0 0.875 -0.3125 1.578125q-0.3125 0.6875 -0.921875 1.0625q-0.59375 0.375 -1.25 0.375q-0.484375 0 -0.875 -0.203125q-0.375 -0.203125 -0.625 -0.515625l0 2.78125l-0.96875 0zm0.875 -5.0q0 1.09375 0.453125 1.625q0.453125 0.515625 1.078125 0.515625q0.640625 0 1.09375 -0.53125q0.46875 -0.546875 0.46875 -1.703125q0 -1.078125 -0.453125 -1.625q-0.4375 -0.546875 -1.0625 -0.546875q-0.625 0 -1.109375 0.578125q-0.46875 0.578125 -0.46875 1.6875zm8.957764 0.96875l1.0 0.125q-0.234375 0.875 -0.875 1.359375q-0.640625 0.484375 -1.625 0.484375q-1.25 0 -1.984375 -0.765625q-0.734375 -0.765625 -0.734375 -2.15625q0 -1.453125 0.734375 -2.234375q0.75 -0.796875 1.921875 -0.796875q1.15625 0 1.875 0.78125q0.71875 0.765625 0.71875 2.1875q0 0.078125 0 0.25l-4.25 0q0.046875 0.9375 0.515625 1.4375q0.484375 0.5 1.203125 0.5q0.53125 0 0.90625 -0.265625q0.375 -0.28125 0.59375 -0.90625zm-3.171875 -1.5625l3.1875 0q-0.0625 -0.71875 -0.359375 -1.078125q-0.46875 -0.546875 -1.203125 -0.546875q-0.671875 0 -1.125 0.453125q-0.453125 0.4375 -0.5 1.171875zm5.192108 3.40625l0 -5.703125l0.859375 0l0 0.859375q0.34375 -0.609375 0.625 -0.796875q0.28125 -0.1875 0.609375 -0.1875q0.5 0 1.0 0.3125l-0.328125 0.890625q-0.359375 -0.203125 -0.71875 -0.203125q-0.3125 0 -0.5625 0.1875q-0.25 0.1875 -0.359375 0.53125q-0.15625 0.515625 -0.15625 1.125l0 2.984375l-0.96875 0zm5.6736145 -0.859375l0.125 0.84375q-0.40625 0.09375 -0.71875 0.09375q-0.53125 0 -0.828125 -0.171875q-0.28125 -0.171875 -0.40625 -0.4375q-0.109375 -0.265625 -0.109375 -1.140625l0 -3.28125l-0.71875 0l0 -0.75l0.71875 0l0 -1.40625l0.953125 -0.59375l0 2.0l0.984375 0l0 0.75l-0.984375 0l0 3.34375q0 0.40625 0.046875 0.53125q0.0625 0.109375 0.171875 0.1875q0.125 0.0625 0.328125 0.0625q0.171875 0 0.4375 -0.03125zm0.80441284 3.0625l-0.109375 -0.90625q0.3125 0.078125 0.546875 0.078125q0.328125 0 0.515625 -0.109375q0.203125 -0.109375 0.3125 -0.296875q0.09375 -0.140625 0.296875 -0.71875q0.03125 -0.078125 0.09375 -0.234375l-2.171875 -5.71875l1.046875 0l1.1875 3.296875q0.234375 0.640625 0.40625 1.328125q0.171875 -0.671875 0.40625 -1.296875l1.21875 -3.328125l0.96875 0l-2.171875 5.796875q-0.34375 0.9375 -0.546875 1.296875q-0.25 0.484375 -0.59375 0.703125q-0.328125 0.21875 -0.78125 0.21875q-0.28125 0 -0.625 -0.109375zm8.101257 -4.734375l0.984375 -0.078125q0.0625 0.578125 0.3125 0.96875q0.265625 0.375 0.796875 0.609375q0.53125 0.234375 1.203125 0.234375q0.609375 0 1.0625 -0.171875q0.453125 -0.1875 0.671875 -0.484375q0.234375 -0.3125 0.234375 -0.6875q0 -0.375 -0.21875 -0.640625q-0.21875 -0.28125 -0.71875 -0.46875q-0.3125 -0.125 -1.40625 -0.375q-1.078125 -0.265625 -1.515625 -0.5q-0.5625 -0.296875 -0.84375 -0.734375q-0.265625 -0.4375 -0.265625 -0.984375q0 -0.59375 0.328125 -1.109375q0.34375 -0.515625 0.984375 -0.78125q0.65625 -0.28125 1.453125 -0.28125q0.875 0 1.546875 0.296875q0.671875 0.28125 1.03125 0.828125q0.359375 0.546875 0.390625 1.234375l-1.0 0.078125q-0.078125 -0.75 -0.546875 -1.125q-0.46875 -0.390625 -1.375 -0.390625q-0.9375 0 -1.375 0.359375q-0.4375 0.34375 -0.4375 0.828125q0 0.421875 0.3125 0.703125q0.296875 0.265625 1.5625 0.5625q1.28125 0.28125 1.75 0.5q0.6875 0.3125 1.015625 0.796875q0.328125 0.484375 0.328125 1.125q0 0.625 -0.359375 1.1875q-0.359375 0.546875 -1.046875 0.859375q-0.671875 0.3125 -1.515625 0.3125q-1.0625 0 -1.78125 -0.3125q-0.71875 -0.3125 -1.140625 -0.9375q-0.40625 -0.625 -0.421875 -1.421875zm11.2326355 0.6875l1.0 0.125q-0.234375 0.875 -0.875 1.359375q-0.640625 0.484375 -1.625 0.484375q-1.25 0 -1.984375 -0.765625q-0.734375 -0.765625 -0.734375 -2.15625q0 -1.453125 0.734375 -2.234375q0.75 -0.796875 1.921875 -0.796875q1.15625 0 1.875 0.78125q0.71875 0.765625 0.71875 2.1875q0 0.078125 0 0.25l-4.25 0q0.046875 0.9375 0.515625 1.4375q0.484375 0.5 1.203125 0.5q0.53125 0 0.90625 -0.265625q0.375 -0.28125 0.59375 -0.90625zm-3.171875 -1.5625l3.1875 0q-0.0625 -0.71875 -0.359375 -1.078125q-0.46875 -0.546875 -1.203125 -0.546875q-0.671875 0 -1.125 0.453125q-0.453125 0.4375 -0.5 1.171875zm7.3171387 2.546875l0.125 0.84375q-0.40625 0.09375 -0.71875 0.09375q-0.53125 0 -0.828125 -0.171875q-0.28125 -0.171875 -0.40625 -0.4375q-0.109375 -0.265625 -0.109375 -1.140625l0 -3.28125l-0.71875 0l0 -0.75l0.71875 0l0 -1.40625l0.953125 -0.59375l0 2.0l0.984375 0l0 0.75l-0.984375 0l0 3.34375q0 0.40625 0.046875 0.53125q0.0625 0.109375 0.171875 0.1875q0.125 0.0625 0.328125 0.0625q0.171875 0 0.4375 -0.03125zm2.9606323 0l0.125 0.84375q-0.40625 0.09375 -0.71875 0.09375q-0.53125 0 -0.828125 -0.171875q-0.28125 -0.171875 -0.40625 -0.4375q-0.109375 -0.265625 -0.109375 -1.140625l0 -3.28125l-0.71875 0l0 -0.75l0.71875 0l0 -1.40625l0.953125 -0.59375l0 2.0l0.984375 0l0 0.75l-0.984375 0l0 3.34375q0 0.40625 0.046875 0.53125q0.0625 0.109375 0.171875 0.1875q0.125 0.0625 0.328125 0.0625q0.171875 0 0.4375 -0.03125zm0.85128784 -5.90625l0 -1.109375l0.96875 0l0 1.109375l-0.96875 0zm0 6.765625l0 -5.703125l0.96875 0l0 5.703125l-0.96875 0zm2.3518372 0l0 -5.703125l0.875 0l0 0.8125q0.625 -0.9375 1.8125 -0.9375q0.515625 0 0.953125 0.1875q0.4375 0.171875 0.640625 0.484375q0.21875 0.296875 0.3125 0.703125q0.046875 0.28125 0.046875 0.953125l0 3.5l-0.96875 0l0 -3.46875q0 -0.59375 -0.109375 -0.875q-0.109375 -0.296875 -0.40625 -0.46875q-0.28125 -0.1875 -0.671875 -0.1875q-0.609375 0 -1.0625 0.390625q-0.453125 0.390625 -0.453125 1.5l0 3.109375l-0.96875 0zm5.7546387 0.46875l0.9375 0.140625q0.0625 0.4375 0.328125 0.640625q0.359375 0.265625 0.984375 0.265625q0.671875 0 1.03125 -0.265625q0.375 -0.265625 0.5 -0.75q0.078125 -0.296875 0.078125 -1.25q-0.640625 0.75 -1.59375 0.75q-1.171875 0 -1.8125 -0.84375q-0.640625 -0.859375 -0.640625 -2.046875q0 -0.8125 0.296875 -1.5q0.296875 -0.6875 0.84375 -1.0625q0.5625 -0.375 1.328125 -0.375q1.0 0 1.65625 0.8125l0 -0.6875l0.890625 0l0 4.921875q0 1.34375 -0.265625 1.890625q-0.265625 0.5625 -0.859375 0.875q-0.59375 0.328125 -1.453125 0.328125q-1.015625 0 -1.640625 -0.46875q-0.625 -0.453125 -0.609375 -1.375zm0.796875 -3.421875q0 1.125 0.4375 1.640625q0.453125 0.515625 1.125 0.515625q0.671875 0 1.125 -0.515625q0.453125 -0.515625 0.453125 -1.609375q0 -1.046875 -0.46875 -1.578125q-0.46875 -0.53125 -1.125 -0.53125q-0.640625 0 -1.09375 0.53125q-0.453125 0.515625 -0.453125 1.546875zm4.926483 1.25l0.953125 -0.15625q0.078125 0.578125 0.4375 0.890625q0.375 0.296875 1.03125 0.296875q0.671875 0 0.984375 -0.265625q0.328125 -0.265625 0.328125 -0.640625q0 -0.328125 -0.28125 -0.515625q-0.203125 -0.125 -0.984375 -0.328125q-1.0625 -0.265625 -1.484375 -0.453125q-0.40625 -0.203125 -0.625 -0.546875q-0.203125 -0.34375 -0.203125 -0.765625q0 -0.390625 0.171875 -0.703125q0.171875 -0.328125 0.484375 -0.546875q0.21875 -0.171875 0.609375 -0.28125q0.390625 -0.109375 0.828125 -0.109375q0.671875 0 1.171875 0.1875q0.515625 0.1875 0.75 0.53125q0.25 0.328125 0.34375 0.875l-0.9375 0.125q-0.078125 -0.4375 -0.390625 -0.671875q-0.296875 -0.25 -0.859375 -0.25q-0.671875 0 -0.953125 0.21875q-0.28125 0.21875 -0.28125 0.515625q0 0.1875 0.109375 0.328125q0.125 0.15625 0.375 0.265625q0.140625 0.046875 0.859375 0.25q1.015625 0.265625 1.421875 0.4375q0.40625 0.171875 0.640625 0.515625q0.234375 0.328125 0.234375 0.828125q0 0.484375 -0.28125 0.90625q-0.28125 0.421875 -0.8125 0.65625q-0.53125 0.234375 -1.203125 0.234375q-1.109375 0 -1.703125 -0.453125q-0.578125 -0.46875 -0.734375 -1.375zm11.304413 -1.578125l0 0.875q-0.40625 0 -0.671875 0.21875q-0.265625 0.21875 -0.359375 0.59375q-0.078125 0.359375 -0.078125 1.265625q0 0.890625 -0.03125 1.171875q-0.046875 0.453125 -0.1875 0.71875q-0.125 0.28125 -0.328125 0.4375q-0.1875 0.171875 -0.484375 0.25q-0.203125 0.0625 -0.671875 0.0625l-0.296875 0l0 -0.84375l0.171875 0q0.5625 0 0.734375 -0.203125q0.1875 -0.203125 0.1875 -0.90625q0 -1.34375 0.046875 -1.703125q0.09375 -0.59375 0.34375 -0.9375q0.265625 -0.359375 0.734375 -0.5625q-0.625 -0.296875 -0.875 -0.78125q-0.25 -0.484375 -0.25 -1.640625q0 -1.046875 -0.03125 -1.25q-0.03125 -0.359375 -0.21875 -0.5q-0.171875 -0.15625 -0.671875 -0.15625l-0.171875 0l0 -0.84375l0.296875 0q0.53125 0 0.765625 0.09375q0.34375 0.125 0.5625 0.40625q0.234375 0.265625 0.296875 0.703125q0.078125 0.421875 0.078125 1.390625q0 0.953125 0.078125 1.328125q0.09375 0.359375 0.359375 0.578125q0.265625 0.21875 0.671875 0.234375z" fill-rule="nonzero"></path><path fill="#000000" fill-opacity="0.0" d="m254.6798 47.75853l0 25.448822l37.70079 0" fill-rule="nonzero"></path><path stroke="#000000" stroke-width="2.0" stroke-linejoin="round" stroke-linecap="butt" d="m254.6798 47.75853l0 25.448822l37.70079 0" fill-rule="nonzero"></path><path fill="#000000" fill-opacity="0.0" d="m254.6798 47.75853l0 67.338585l40.440933 0" fill-rule="nonzero"></path><path stroke="#000000" stroke-width="2.0" stroke-linejoin="round" stroke-linecap="butt" d="m254.6798 47.75853l0 67.338585l40.440933 0" fill-rule="nonzero"></path><path fill="#cfe2f3" d="m384.99344 142.29527l95.13901 0c1.1305237 0 2.2147217 0.44909668 3.0140991 1.2484741c0.79937744 0.79937744 1.2484741 1.8835754 1.2484741 3.0140839l0 21.31224l-99.40158 0z" fill-rule="nonzero"></path><path stroke="#000000" stroke-width="2.0" stroke-linejoin="round" stroke-linecap="butt" d="m384.99344 142.29527l95.13901 0c1.1305237 0 2.2147217 0.44909668 3.0140991 1.2484741c0.79937744 0.79937744 1.2484741 1.8835754 1.2484741 3.0140839l0 21.31224l-99.40158 0z" fill-rule="nonzero"></path><path fill="#000000" d="m394.8372 158.82268l0 -7.875l2.96875 0q0.796875 0 1.203125 0.078125q0.578125 0.09375 0.96875 0.375q0.390625 0.265625 0.625 0.75q0.25 0.484375 0.25 1.078125q0 1.0 -0.640625 1.703125q-0.640625 0.6875 -2.3125 0.6875l-2.015625 0l0 3.203125l-1.046875 0zm1.046875 -4.125l2.03125 0q1.015625 0 1.4375 -0.375q0.421875 -0.375 0.421875 -1.0625q0 -0.5 -0.25 -0.84375q-0.25 -0.359375 -0.65625 -0.46875q-0.265625 -0.0625 -0.96875 -0.0625l-2.015625 0l0 2.8125zm5.9357605 4.125l0 -5.703125l0.859375 0l0 0.859375q0.34375 -0.609375 0.625 -0.796875q0.28125 -0.1875 0.609375 -0.1875q0.5 0 1.0 0.3125l-0.328125 0.890625q-0.359375 -0.203125 -0.71875 -0.203125q-0.3125 0 -0.5625 0.1875q-0.25 0.1875 -0.359375 0.53125q-0.15625 0.515625 -0.15625 1.125l0 2.984375l-0.96875 0zm3.1892395 -2.859375q0 -1.578125 0.890625 -2.34375q0.734375 -0.625 1.796875 -0.625q1.171875 0 1.90625 0.765625q0.75 0.765625 0.75 2.125q0 1.109375 -0.328125 1.75q-0.328125 0.625 -0.96875 0.96875q-0.625 0.34375 -1.359375 0.34375q-1.203125 0 -1.953125 -0.765625q-0.734375 -0.765625 -0.734375 -2.21875zm1.0 0q0 1.109375 0.46875 1.65625q0.484375 0.53125 1.21875 0.53125q0.71875 0 1.1875 -0.546875q0.484375 -0.546875 0.484375 -1.671875q0 -1.046875 -0.484375 -1.59375q-0.484375 -0.546875 -1.1875 -0.546875q-0.734375 0 -1.21875 0.546875q-0.46875 0.53125 -0.46875 1.625zm5.285858 5.046875l0 -7.890625l0.890625 0l0 0.734375q0.3125 -0.421875 0.703125 -0.640625q0.390625 -0.21875 0.953125 -0.21875q0.71875 0 1.28125 0.375q0.5625 0.375 0.84375 1.0625q0.28125 0.671875 0.28125 1.5q0 0.875 -0.3125 1.578125q-0.3125 0.6875 -0.921875 1.0625q-0.59375 0.375 -1.25 0.375q-0.484375 0 -0.875 -0.203125q-0.375 -0.203125 -0.625 -0.515625l0 2.78125l-0.96875 0zm0.875 -5.0q0 1.09375 0.453125 1.625q0.453125 0.515625 1.078125 0.515625q0.640625 0 1.09375 -0.53125q0.46875 -0.546875 0.46875 -1.703125q0 -1.078125 -0.453125 -1.625q-0.4375 -0.546875 -1.0625 -0.546875q-0.625 0 -1.109375 0.578125q-0.46875 0.578125 -0.46875 1.6875zm8.957764 0.96875l1.0 0.125q-0.234375 0.875 -0.875 1.359375q-0.640625 0.484375 -1.625 0.484375q-1.25 0 -1.984375 -0.765625q-0.734375 -0.765625 -0.734375 -2.15625q0 -1.453125 0.734375 -2.234375q0.75 -0.796875 1.921875 -0.796875q1.15625 0 1.875 0.78125q0.71875 0.765625 0.71875 2.1875q0 0.078125 0 0.25l-4.25 0q0.046875 0.9375 0.515625 1.4375q0.484375 0.5 1.203125 0.5q0.53125 0 0.90625 -0.265625q0.375 -0.28125 0.59375 -0.90625zm-3.171875 -1.5625l3.1875 0q-0.0625 -0.71875 -0.359375 -1.078125q-0.46875 -0.546875 -1.203125 -0.546875q-0.671875 0 -1.125 0.453125q-0.453125 0.4375 -0.5 1.171875zm5.192108 3.40625l0 -5.703125l0.859375 0l0 0.859375q0.34375 -0.609375 0.625 -0.796875q0.28125 -0.1875 0.609375 -0.1875q0.5 0 1.0 0.3125l-0.328125 0.890625q-0.359375 -0.203125 -0.71875 -0.203125q-0.3125 0 -0.5625 0.1875q-0.25 0.1875 -0.359375 0.53125q-0.15625 0.515625 -0.15625 1.125l0 2.984375l-0.96875 0zm5.6736145 -0.859375l0.125 0.84375q-0.40625 0.09375 -0.71875 0.09375q-0.53125 0 -0.828125 -0.171875q-0.28125 -0.171875 -0.40625 -0.4375q-0.109375 -0.265625 -0.109375 -1.140625l0 -3.28125l-0.71875 0l0 -0.75l0.71875 0l0 -1.40625l0.953125 -0.59375l0 2.0l0.984375 0l0 0.75l-0.984375 0l0 3.34375q0 0.40625 0.046875 0.53125q0.0625 0.109375 0.171875 0.1875q0.125 0.0625 0.328125 0.0625q0.171875 0 0.4375 -0.03125zm0.80441284 3.0625l-0.109375 -0.90625q0.3125 0.078125 0.546875 0.078125q0.328125 0 0.515625 -0.109375q0.203125 -0.109375 0.3125 -0.296875q0.09375 -0.140625 0.296875 -0.71875q0.03125 -0.078125 0.09375 -0.234375l-2.171875 -5.71875l1.046875 0l1.1875 3.296875q0.234375 0.640625 0.40625 1.328125q0.171875 -0.671875 0.40625 -1.296875l1.21875 -3.328125l0.96875 0l-2.171875 5.796875q-0.34375 0.9375 -0.546875 1.296875q-0.25 0.484375 -0.59375 0.703125q-0.328125 0.21875 -0.78125 0.21875q-0.28125 0 -0.625 -0.109375zm8.101257 -4.734375l0.984375 -0.078125q0.0625 0.578125 0.3125 0.96875q0.265625 0.375 0.796875 0.609375q0.53125 0.234375 1.203125 0.234375q0.609375 0 1.0625 -0.171875q0.453125 -0.1875 0.671875 -0.484375q0.234375 -0.3125 0.234375 -0.6875q0 -0.375 -0.21875 -0.640625q-0.21875 -0.28125 -0.71875 -0.46875q-0.3125 -0.125 -1.40625 -0.375q-1.078125 -0.265625 -1.515625 -0.5q-0.5625 -0.296875 -0.84375 -0.734375q-0.265625 -0.4375 -0.265625 -0.984375q0 -0.59375 0.328125 -1.109375q0.34375 -0.515625 0.984375 -0.78125q0.65625 -0.28125 1.453125 -0.28125q0.875 0 1.546875 0.296875q0.671875 0.28125 1.03125 0.828125q0.359375 0.546875 0.390625 1.234375l-1.0 0.078125q-0.078125 -0.75 -0.546875 -1.125q-0.46875 -0.390625 -1.375 -0.390625q-0.9375 0 -1.375 0.359375q-0.4375 0.34375 -0.4375 0.828125q0 0.421875 0.3125 0.703125q0.296875 0.265625 1.5625 0.5625q1.28125 0.28125 1.75 0.5q0.6875 0.3125 1.015625 0.796875q0.328125 0.484375 0.328125 1.125q0 0.625 -0.359375 1.1875q-0.359375 0.546875 -1.046875 0.859375q-0.671875 0.3125 -1.515625 0.3125q-1.0625 0 -1.78125 -0.3125q-0.71875 -0.3125 -1.140625 -0.9375q-0.40625 -0.625 -0.421875 -1.421875zm11.2326355 0.6875l1.0 0.125q-0.234375 0.875 -0.875 1.359375q-0.640625 0.484375 -1.625 0.484375q-1.25 0 -1.984375 -0.765625q-0.734375 -0.765625 -0.734375 -2.15625q0 -1.453125 0.734375 -2.234375q0.75 -0.796875 1.921875 -0.796875q1.15625 0 1.875 0.78125q0.71875 0.765625 0.71875 2.1875q0 0.078125 0 0.25l-4.25 0q0.046875 0.9375 0.515625 1.4375q0.484375 0.5 1.203125 0.5q0.53125 0 0.90625 -0.265625q0.375 -0.28125 0.59375 -0.90625zm-3.171875 -1.5625l3.1875 0q-0.0625 -0.71875 -0.359375 -1.078125q-0.46875 -0.546875 -1.203125 -0.546875q-0.671875 0 -1.125 0.453125q-0.453125 0.4375 -0.5 1.171875zm7.3171387 2.546875l0.125 0.84375q-0.40625 0.09375 -0.71875 0.09375q-0.53125 0 -0.828125 -0.171875q-0.28125 -0.171875 -0.40625 -0.4375q-0.109375 -0.265625 -0.109375 -1.140625l0 -3.28125l-0.71875 0l0 -0.75l0.71875 0l0 -1.40625l0.953125 -0.59375l0 2.0l0.984375 0l0 0.75l-0.984375 0l0 3.34375q0 0.40625 0.046875 0.53125q0.0625 0.109375 0.171875 0.1875q0.125 0.0625 0.328125 0.0625q0.171875 0 0.4375 -0.03125zm2.9606323 0l0.125 0.84375q-0.40625 0.09375 -0.71875 0.09375q-0.53125 0 -0.828125 -0.171875q-0.28125 -0.171875 -0.40625 -0.4375q-0.109375 -0.265625 -0.109375 -1.140625l0 -3.28125l-0.71875 0l0 -0.75l0.71875 0l0 -1.40625l0.953125 -0.59375l0 2.0l0.984375 0l0 0.75l-0.984375 0l0 3.34375q0 0.40625 0.046875 0.53125q0.0625 0.109375 0.171875 0.1875q0.125 0.0625 0.328125 0.0625q0.171875 0 0.4375 -0.03125zm0.85128784 -5.90625l0 -1.109375l0.96875 0l0 1.109375l-0.96875 0zm0 6.765625l0 -5.703125l0.96875 0l0 5.703125l-0.96875 0zm2.3518372 0l0 -5.703125l0.875 0l0 0.8125q0.625 -0.9375 1.8125 -0.9375q0.515625 0 0.953125 0.1875q0.4375 0.171875 0.640625 0.484375q0.21875 0.296875 0.3125 0.703125q0.046875 0.28125 0.046875 0.953125l0 3.5l-0.96875 0l0 -3.46875q0 -0.59375 -0.109375 -0.875q-0.109375 -0.296875 -0.40625 -0.46875q-0.28125 -0.1875 -0.671875 -0.1875q-0.609375 0 -1.0625 0.390625q-0.453125 0.390625 -0.453125 1.5l0 3.109375l-0.96875 0zm5.7546387 0.46875l0.9375 0.140625q0.0625 0.4375 0.328125 0.640625q0.359375 0.265625 0.984375 0.265625q0.671875 0 1.03125 -0.265625q0.375 -0.265625 0.5 -0.75q0.078125 -0.296875 0.078125 -1.25q-0.640625 0.75 -1.59375 0.75q-1.171875 0 -1.8125 -0.84375q-0.640625 -0.859375 -0.640625 -2.046875q0 -0.8125 0.296875 -1.5q0.296875 -0.6875 0.84375 -1.0625q0.5625 -0.375 1.328125 -0.375q1.0 0 1.65625 0.8125l0 -0.6875l0.890625 0l0 4.921875q0 1.34375 -0.265625 1.890625q-0.265625 0.5625 -0.859375 0.875q-0.59375 0.328125 -1.453125 0.328125q-1.015625 0 -1.640625 -0.46875q-0.625 -0.453125 -0.609375 -1.375zm0.796875 -3.421875q0 1.125 0.4375 1.640625q0.453125 0.515625 1.125 0.515625q0.671875 0 1.125 -0.515625q0.453125 -0.515625 0.453125 -1.609375q0 -1.046875 -0.46875 -1.578125q-0.46875 -0.53125 -1.125 -0.53125q-0.640625 0 -1.09375 0.53125q-0.453125 0.515625 -0.453125 1.546875z" fill-rule="nonzero"></path><path fill="#000000" fill-opacity="0.0" d="m358.31628 127.8937l0 27.181099l26.677155 0" fill-rule="nonzero"></path><path stroke="#000000" stroke-width="2.0" stroke-linejoin="round" stroke-linecap="butt" d="m358.31628 127.8937l0 27.181099l26.677155 0" fill-rule="nonzero"></path><path fill="#cfe2f3" d="m459.72833 180.28477l165.24927 0c1.1304932 0 2.2147217 0.44909668 3.0140991 1.2484741c0.79937744 0.79937744 1.2484741 1.8835754 1.2484741 3.0140839l0 21.31224l-169.51184 0z" fill-rule="nonzero"></path><path stroke="#000000" stroke-width="2.0" stroke-linejoin="round" stroke-linecap="butt" d="m459.72833 180.28477l165.24927 0c1.1304932 0 2.2147217 0.44909668 3.0140991 1.2484741c0.79937744 0.79937744 1.2484741 1.8835754 1.2484741 3.0140839l0 21.31224l-169.51184 0z" fill-rule="nonzero"></path><path fill="#000000" d="m469.57208 196.81218l0 -7.875l2.96875 0q0.796875 0 1.203125 0.078125q0.578125 0.09375 0.96875 0.375q0.390625 0.265625 0.625 0.75q0.25 0.484375 0.25 1.078125q0 1.0 -0.640625 1.703125q-0.640625 0.6875 -2.3125 0.6875l-2.015625 0l0 3.203125l-1.046875 0zm1.046875 -4.125l2.03125 0q1.015625 0 1.4375 -0.375q0.421875 -0.375 0.421875 -1.0625q0 -0.5 -0.25 -0.84375q-0.25 -0.359375 -0.65625 -0.46875q-0.265625 -0.0625 -0.96875 -0.0625l-2.015625 0l0 2.8125zm5.9357605 4.125l0 -5.703125l0.859375 0l0 0.859375q0.34375 -0.609375 0.625 -0.796875q0.28125 -0.1875 0.609375 -0.1875q0.5 0 1.0 0.3125l-0.328125 0.890625q-0.359375 -0.203125 -0.71875 -0.203125q-0.3125 0 -0.5625 0.1875q-0.25 0.1875 -0.359375 0.53125q-0.15625 0.515625 -0.15625 1.125l0 2.984375l-0.96875 0zm3.1892395 -2.859375q0 -1.578125 0.890625 -2.34375q0.734375 -0.625 1.796875 -0.625q1.171875 0 1.90625 0.765625q0.75 0.765625 0.75 2.125q0 1.109375 -0.328125 1.75q-0.328125 0.625 -0.96875 0.96875q-0.625 0.34375 -1.359375 0.34375q-1.203125 0 -1.953125 -0.765625q-0.734375 -0.765625 -0.734375 -2.21875zm1.0 0q0 1.109375 0.46875 1.65625q0.484375 0.53125 1.21875 0.53125q0.71875 0 1.1875 -0.546875q0.484375 -0.546875 0.484375 -1.671875q0 -1.046875 -0.484375 -1.59375q-0.484375 -0.546875 -1.1875 -0.546875q-0.734375 0 -1.21875 0.546875q-0.46875 0.53125 -0.46875 1.625zm5.2858887 5.046875l0 -7.890625l0.890625 0l0 0.734375q0.3125 -0.421875 0.703125 -0.640625q0.390625 -0.21875 0.953125 -0.21875q0.71875 0 1.28125 0.375q0.5625 0.375 0.84375 1.0625q0.28125 0.671875 0.28125 1.5q0 0.875 -0.3125 1.578125q-0.3125 0.6875 -0.921875 1.0625q-0.59375 0.375 -1.25 0.375q-0.484375 0 -0.875 -0.203125q-0.375 -0.203125 -0.625 -0.515625l0 2.78125l-0.96875 0zm0.875 -5.0q0 1.09375 0.453125 1.625q0.453125 0.515625 1.078125 0.515625q0.640625 0 1.09375 -0.53125q0.46875 -0.546875 0.46875 -1.703125q0 -1.078125 -0.453125 -1.625q-0.4375 -0.546875 -1.0625 -0.546875q-0.625 0 -1.109375 0.578125q-0.46875 0.578125 -0.46875 1.6875zm8.957733 0.96875l1.0 0.125q-0.234375 0.875 -0.875 1.359375q-0.640625 0.484375 -1.625 0.484375q-1.25 0 -1.984375 -0.765625q-0.734375 -0.765625 -0.734375 -2.15625q0 -1.453125 0.734375 -2.234375q0.75 -0.796875 1.921875 -0.796875q1.15625 0 1.875 0.78125q0.71875 0.765625 0.71875 2.1875q0 0.078125 0 0.25l-4.25 0q0.046875 0.9375 0.515625 1.4375q0.484375 0.5 1.203125 0.5q0.53125 0 0.90625 -0.265625q0.375 -0.28125 0.59375 -0.90625zm-3.171875 -1.5625l3.1875 0q-0.0625 -0.71875 -0.359375 -1.078125q-0.46875 -0.546875 -1.203125 -0.546875q-0.671875 0 -1.125 0.453125q-0.453125 0.4375 -0.5 1.171875zm5.1921387 3.40625l0 -5.703125l0.859375 0l0 0.859375q0.34375 -0.609375 0.625 -0.796875q0.28125 -0.1875 0.609375 -0.1875q0.5 0 1.0 0.3125l-0.328125 0.890625q-0.359375 -0.203125 -0.71875 -0.203125q-0.3125 0 -0.5625 0.1875q-0.25 0.1875 -0.359375 0.53125q-0.15625 0.515625 -0.15625 1.125l0 2.984375l-0.96875 0zm5.6736145 -0.859375l0.125 0.84375q-0.40625 0.09375 -0.71875 0.09375q-0.53125 0 -0.828125 -0.171875q-0.28125 -0.171875 -0.40625 -0.4375q-0.109375 -0.265625 -0.109375 -1.140625l0 -3.28125l-0.71875 0l0 -0.75l0.71875 0l0 -1.40625l0.953125 -0.59375l0 2.0l0.984375 0l0 0.75l-0.984375 0l0 3.34375q0 0.40625 0.046875 0.53125q0.0625 0.109375 0.171875 0.1875q0.125 0.0625 0.328125 0.0625q0.171875 0 0.4375 -0.03125zm0.8043823 3.0625l-0.109375 -0.90625q0.3125 0.078125 0.546875 0.078125q0.328125 0 0.515625 -0.109375q0.203125 -0.109375 0.3125 -0.296875q0.09375 -0.140625 0.296875 -0.71875q0.03125 -0.078125 0.09375 -0.234375l-2.171875 -5.71875l1.046875 0l1.1875 3.296875q0.234375 0.640625 0.40625 1.328125q0.171875 -0.671875 0.40625 -1.296875l1.21875 -3.328125l0.96875 0l-2.171875 5.796875q-0.34375 0.9375 -0.546875 1.296875q-0.25 0.484375 -0.59375 0.703125q-0.328125 0.21875 -0.78125 0.21875q-0.28125 0 -0.625 -0.109375zm5.484375 -2.203125l0 -7.875l1.0625 0l4.140625 6.1875l0 -6.1875l1.0 0l0 7.875l-1.078125 0l-4.125 -6.1875l0 6.1875l-1.0 0zm11.304993 -0.703125q-0.546875 0.453125 -1.046875 0.640625q-0.484375 0.1875 -1.0625 0.1875q-0.9375 0 -1.453125 -0.453125q-0.5 -0.46875 -0.5 -1.171875q0 -0.421875 0.1875 -0.765625q0.203125 -0.34375 0.5 -0.546875q0.3125 -0.21875 0.703125 -0.328125q0.28125 -0.078125 0.859375 -0.140625q1.171875 -0.140625 1.71875 -0.34375q0.015625 -0.1875 0.015625 -0.25q0 -0.59375 -0.28125 -0.828125q-0.359375 -0.328125 -1.09375 -0.328125q-0.6875 0 -1.015625 0.234375q-0.3125 0.234375 -0.46875 0.84375l-0.953125 -0.125q0.125 -0.609375 0.421875 -0.984375q0.296875 -0.375 0.859375 -0.5625q0.5625 -0.203125 1.296875 -0.203125q0.734375 0 1.1875 0.171875q0.453125 0.171875 0.65625 0.4375q0.21875 0.25 0.3125 0.640625q0.046875 0.25 0.046875 0.90625l0 1.28125q0 1.34375 0.0625 1.703125q0.0625 0.359375 0.25 0.6875l-1.015625 0q-0.15625 -0.296875 -0.1875 -0.703125zm-0.09375 -2.15625q-0.515625 0.21875 -1.578125 0.359375q-0.59375 0.09375 -0.84375 0.203125q-0.234375 0.09375 -0.375 0.3125q-0.140625 0.203125 -0.140625 0.453125q0 0.390625 0.296875 0.65625q0.296875 0.25 0.859375 0.25q0.5625 0 0.984375 -0.25q0.4375 -0.25 0.65625 -0.671875q0.140625 -0.328125 0.140625 -0.96875l0 -0.34375zm2.2858887 2.859375l0 -5.703125l0.875 0l0 0.796875q0.265625 -0.421875 0.703125 -0.671875q0.453125 -0.25 1.015625 -0.25q0.640625 0 1.046875 0.265625q0.40625 0.25 0.578125 0.734375q0.671875 -1.0 1.75 -1.0q0.859375 0 1.3125 0.46875q0.453125 0.46875 0.453125 1.4375l0 3.921875l-0.953125 0l0 -3.59375q0 -0.578125 -0.09375 -0.828125q-0.09375 -0.265625 -0.34375 -0.421875q-0.25 -0.15625 -0.578125 -0.15625q-0.609375 0 -1.015625 0.40625q-0.390625 0.40625 -0.390625 1.28125l0 3.3125l-0.96875 0l0 -3.703125q0 -0.640625 -0.234375 -0.96875q-0.234375 -0.328125 -0.765625 -0.328125q-0.40625 0 -0.765625 0.21875q-0.34375 0.21875 -0.5 0.640625q-0.15625 0.40625 -0.15625 1.1875l0 2.953125l-0.96875 0zm12.782959 -1.84375l1.0 0.125q-0.234375 0.875 -0.875 1.359375q-0.640625 0.484375 -1.625 0.484375q-1.25 0 -1.984375 -0.765625q-0.734375 -0.765625 -0.734375 -2.15625q0 -1.453125 0.734375 -2.234375q0.75 -0.796875 1.921875 -0.796875q1.15625 0 1.875 0.78125q0.71875 0.765625 0.71875 2.1875q0 0.078125 0 0.25l-4.25 0q0.046875 0.9375 0.515625 1.4375q0.484375 0.5 1.203125 0.5q0.53125 0 0.90625 -0.265625q0.375 -0.28125 0.59375 -0.90625zm-3.171875 -1.5625l3.1875 0q-0.0625 -0.71875 -0.359375 -1.078125q-0.46875 -0.546875 -1.203125 -0.546875q-0.671875 0 -1.125 0.453125q-0.453125 0.4375 -0.5 1.171875zm10.012146 5.71875q-0.8125 -1.0 -1.359375 -2.359375q-0.546875 -1.359375 -0.546875 -2.8125q0 -1.265625 0.40625 -2.4375q0.484375 -1.359375 1.5 -2.71875l0.6875 0q-0.65625 1.125 -0.859375 1.609375q-0.328125 0.734375 -0.515625 1.546875q-0.234375 1.0 -0.234375 2.015625q0 2.578125 1.609375 5.15625l-0.6875 0zm2.579895 -2.3125l-0.890625 0l0 -7.875l0.96875 0l0 2.8125q0.609375 -0.765625 1.5625 -0.765625q0.53125 0 1.0 0.21875q0.46875 0.203125 0.765625 0.59375q0.3125 0.375 0.484375 0.921875q0.171875 0.53125 0.171875 1.15625q0 1.46875 -0.734375 2.265625q-0.71875 0.796875 -1.734375 0.796875q-1.015625 0 -1.59375 -0.84375l0 0.71875zm0 -2.890625q0 1.015625 0.28125 1.484375q0.453125 0.734375 1.234375 0.734375q0.625 0 1.078125 -0.546875q0.46875 -0.546875 0.46875 -1.640625q0 -1.109375 -0.4375 -1.640625q-0.4375 -0.53125 -1.078125 -0.53125q-0.625 0 -1.09375 0.546875q-0.453125 0.546875 -0.453125 1.59375zm4.6764526 0.03125q0 -1.578125 0.890625 -2.34375q0.734375 -0.625 1.796875 -0.625q1.171875 0 1.90625 0.765625q0.75 0.765625 0.75 2.125q0 1.109375 -0.328125 1.75q-0.328125 0.625 -0.96875 0.96875q-0.625 0.34375 -1.359375 0.34375q-1.203125 0 -1.953125 -0.765625q-0.734375 -0.765625 -0.734375 -2.21875zm1.0 0q0 1.109375 0.46875 1.65625q0.484375 0.53125 1.21875 0.53125q0.71875 0 1.1875 -0.546875q0.484375 -0.546875 0.484375 -1.671875q0 -1.046875 -0.484375 -1.59375q-0.484375 -0.546875 -1.1875 -0.546875q-0.734375 0 -1.21875 0.546875q-0.46875 0.53125 -0.46875 1.625zm5.2858887 2.859375l0 -5.703125l0.859375 0l0 0.859375q0.34375 -0.609375 0.625 -0.796875q0.28125 -0.1875 0.609375 -0.1875q0.5 0 1.0 0.3125l-0.328125 0.890625q-0.359375 -0.203125 -0.71875 -0.203125q-0.3125 0 -0.5625 0.1875q-0.25 0.1875 -0.359375 0.53125q-0.15625 0.515625 -0.15625 1.125l0 2.984375l-0.96875 0zm7.25177 0l0 -0.71875q-0.53125 0.84375 -1.59375 0.84375q-0.671875 0 -1.25 -0.375q-0.578125 -0.375 -0.890625 -1.046875q-0.3125 -0.671875 -0.3125 -1.546875q0 -0.859375 0.28125 -1.546875q0.296875 -0.703125 0.859375 -1.0625q0.5625 -0.375 1.265625 -0.375q0.515625 0 0.921875 0.21875q0.40625 0.21875 0.65625 0.5625l0 -2.828125l0.96875 0l0 7.875l-0.90625 0zm-3.046875 -2.84375q0 1.09375 0.453125 1.640625q0.46875 0.53125 1.09375 0.53125q0.640625 0 1.078125 -0.515625q0.4375 -0.515625 0.4375 -1.578125q0 -1.171875 -0.453125 -1.71875q-0.4375 -0.546875 -1.109375 -0.546875q-0.640625 0 -1.078125 0.53125q-0.421875 0.515625 -0.421875 1.65625zm9.176453 1.0l1.0 0.125q-0.234375 0.875 -0.875 1.359375q-0.640625 0.484375 -1.625 0.484375q-1.25 0 -1.984375 -0.765625q-0.734375 -0.765625 -0.734375 -2.15625q0 -1.453125 0.734375 -2.234375q0.75 -0.796875 1.921875 -0.796875q1.15625 0 1.875 0.78125q0.71875 0.765625 0.71875 2.1875q0 0.078125 0 0.25l-4.25 0q0.046875 0.9375 0.515625 1.4375q0.484375 0.5 1.203125 0.5q0.53125 0 0.90625 -0.265625q0.375 -0.28125 0.59375 -0.90625zm-3.171875 -1.5625l3.1875 0q-0.0625 -0.71875 -0.359375 -1.078125q-0.46875 -0.546875 -1.203125 -0.546875q-0.671875 0 -1.125 0.453125q-0.453125 0.4375 -0.5 1.171875zm5.1921387 3.40625l0 -5.703125l0.859375 0l0 0.859375q0.34375 -0.609375 0.625 -0.796875q0.28125 -0.1875 0.609375 -0.1875q0.5 0 1.0 0.3125l-0.328125 0.890625q-0.359375 -0.203125 -0.71875 -0.203125q-0.3125 0 -0.5625 0.1875q-0.25 0.1875 -0.359375 0.53125q-0.15625 0.515625 -0.15625 1.125l0 2.984375l-0.96875 0zm3.173645 -2.359375l0 -0.96875l2.96875 0l0 0.96875l-2.96875 0zm7.657959 0.265625l0.9375 0.125q-0.140625 0.984375 -0.796875 1.546875q-0.640625 0.546875 -1.5625 0.546875q-1.171875 0 -1.890625 -0.765625q-0.703125 -0.765625 -0.703125 -2.1875q0 -0.921875 0.296875 -1.609375q0.3125 -0.703125 0.9375 -1.046875q0.625 -0.34375 1.359375 -0.34375q0.921875 0 1.515625 0.46875q0.59375 0.46875 0.765625 1.328125l-0.953125 0.140625q-0.125 -0.5625 -0.46875 -0.84375q-0.34375 -0.296875 -0.828125 -0.296875q-0.71875 0 -1.1875 0.53125q-0.453125 0.515625 -0.453125 1.640625q0 1.15625 0.4375 1.671875q0.4375 0.515625 1.15625 0.515625q0.5625 0 0.9375 -0.34375q0.390625 -0.34375 0.5 -1.078125zm1.234375 -0.765625q0 -1.578125 0.890625 -2.34375q0.734375 -0.625 1.796875 -0.625q1.171875 0 1.90625 0.765625q0.75 0.765625 0.75 2.125q0 1.109375 -0.328125 1.75q-0.328125 0.625 -0.96875 0.96875q-0.625 0.34375 -1.359375 0.34375q-1.203125 0 -1.953125 -0.765625q-0.734375 -0.765625 -0.734375 -2.21875zm1.0 0q0 1.109375 0.46875 1.65625q0.484375 0.53125 1.21875 0.53125q0.71875 0 1.1875 -0.546875q0.484375 -0.546875 0.484375 -1.671875q0 -1.046875 -0.484375 -1.59375q-0.484375 -0.546875 -1.1875 -0.546875q-0.734375 0 -1.21875 0.546875q-0.46875 0.53125 -0.46875 1.625zm5.2702637 2.859375l0 -7.875l0.96875 0l0 7.875l-0.96875 0zm2.0237427 -2.859375q0 -1.578125 0.890625 -2.34375q0.734375 -0.625 1.796875 -0.625q1.171875 0 1.90625 0.765625q0.75 0.765625 0.75 2.125q0 1.109375 -0.328125 1.75q-0.328125 0.625 -0.96875 0.96875q-0.625 0.34375 -1.359375 0.34375q-1.203125 0 -1.953125 -0.765625q-0.734375 -0.765625 -0.734375 -2.21875zm1.0 0q0 1.109375 0.46875 1.65625q0.484375 0.53125 1.21875 0.53125q0.71875 0 1.1875 -0.546875q0.484375 -0.546875 0.484375 -1.671875q0 -1.046875 -0.484375 -1.59375q-0.484375 -0.546875 -1.1875 -0.546875q-0.734375 0 -1.21875 0.546875q-0.46875 0.53125 -0.46875 1.625zm5.2858276 2.859375l0 -5.703125l0.859375 0l0 0.859375q0.34375 -0.609375 0.625 -0.796875q0.28125 -0.1875 0.609375 -0.1875q0.5 0 1.0 0.3125l-0.328125 0.890625q-0.359375 -0.203125 -0.71875 -0.203125q-0.3125 0 -0.5625 0.1875q-0.25 0.1875 -0.359375 0.53125q-0.15625 0.515625 -0.15625 1.125l0 2.984375l-0.96875 0zm3.829895 -4.609375l0 -1.09375l1.09375 0l0 1.09375l-1.09375 0zm0 4.609375l0 -1.09375l1.09375 0l0 1.09375l-1.09375 0zm3.3200073 2.3125l-0.6875 0q1.59375 -2.578125 1.59375 -5.15625q0 -1.015625 -0.21875 -2.0q-0.1875 -0.8125 -0.515625 -1.546875q-0.203125 -0.484375 -0.859375 -1.625l0.6875 0q1.015625 1.359375 1.5 2.71875q0.40625 1.171875 0.40625 2.4375q0 1.453125 -0.5625 2.8125q-0.546875 1.359375 -1.34375 2.359375z" fill-rule="nonzero"></path><path fill="#000000" fill-opacity="0.0" d="m434.6942 167.87007l0 25.196854l25.039368 0" fill-rule="nonzero"></path><path stroke="#000000" stroke-width="2.0" stroke-linejoin="round" stroke-linecap="butt" d="m434.6942 167.87007l0 25.196854l25.039368 0" fill-rule="nonzero"></path><path fill="#cfe2f3" d="m460.49738 218.03806l165.24927 0c1.1304932 0 2.2146606 0.44909668 3.0140991 1.2484741c0.79937744 0.79937744 1.2484741 1.8835754 1.2484741 3.0140839l0 21.31224l-169.51184 0z" fill-rule="nonzero"></path><path stroke="#000000" stroke-width="2.0" stroke-linejoin="round" stroke-linecap="butt" d="m460.49738 218.03806l165.24927 0c1.1304932 0 2.2146606 0.44909668 3.0140991 1.2484741c0.79937744 0.79937744 1.2484741 1.8835754 1.2484741 3.0140839l0 21.31224l-169.51184 0z" fill-rule="nonzero"></path><path fill="#000000" d="m470.34113 234.56546l0 -7.875l2.96875 0q0.796875 0 1.203125 0.078125q0.578125 0.09375 0.96875 0.375q0.390625 0.265625 0.625 0.75q0.25 0.484375 0.25 1.078125q0 1.0 -0.640625 1.703125q-0.640625 0.6875 -2.3125 0.6875l-2.015625 0l0 3.203125l-1.046875 0zm1.046875 -4.125l2.03125 0q1.015625 0 1.4375 -0.375q0.421875 -0.375 0.421875 -1.0625q0 -0.5 -0.25 -0.84375q-0.25 -0.359375 -0.65625 -0.46875q-0.265625 -0.0625 -0.96875 -0.0625l-2.015625 0l0 2.8125zm5.9357605 4.125l0 -5.703125l0.859375 0l0 0.859375q0.34375 -0.609375 0.625 -0.796875q0.28125 -0.1875 0.609375 -0.1875q0.5 0 1.0 0.3125l-0.328125 0.890625q-0.359375 -0.203125 -0.71875 -0.203125q-0.3125 0 -0.5625 0.1875q-0.25 0.1875 -0.359375 0.53125q-0.15625 0.515625 -0.15625 1.125l0 2.984375l-0.96875 0zm3.1892395 -2.859375q0 -1.578125 0.890625 -2.34375q0.734375 -0.625 1.796875 -0.625q1.171875 0 1.90625 0.765625q0.75 0.765625 0.75 2.125q0 1.109375 -0.328125 1.75q-0.328125 0.625 -0.96875 0.96875q-0.625 0.34375 -1.359375 0.34375q-1.203125 0 -1.953125 -0.765625q-0.734375 -0.765625 -0.734375 -2.21875zm1.0 0q0 1.109375 0.46875 1.65625q0.484375 0.53125 1.21875 0.53125q0.71875 0 1.1875 -0.546875q0.484375 -0.546875 0.484375 -1.671875q0 -1.046875 -0.484375 -1.59375q-0.484375 -0.546875 -1.1875 -0.546875q-0.734375 0 -1.21875 0.546875q-0.46875 0.53125 -0.46875 1.625zm5.285858 5.046875l0 -7.890625l0.890625 0l0 0.734375q0.3125 -0.421875 0.703125 -0.640625q0.390625 -0.21875 0.953125 -0.21875q0.71875 0 1.28125 0.375q0.5625 0.375 0.84375 1.0625q0.28125 0.671875 0.28125 1.5q0 0.875 -0.3125 1.578125q-0.3125 0.6875 -0.921875 1.0625q-0.59375 0.375 -1.25 0.375q-0.484375 0 -0.875 -0.203125q-0.375 -0.203125 -0.625 -0.515625l0 2.78125l-0.96875 0zm0.875 -5.0q0 1.09375 0.453125 1.625q0.453125 0.515625 1.078125 0.515625q0.640625 0 1.09375 -0.53125q0.46875 -0.546875 0.46875 -1.703125q0 -1.078125 -0.453125 -1.625q-0.4375 -0.546875 -1.0625 -0.546875q-0.625 0 -1.109375 0.578125q-0.46875 0.578125 -0.46875 1.6875zm8.957764 0.96875l1.0 0.125q-0.234375 0.875 -0.875 1.359375q-0.640625 0.484375 -1.625 0.484375q-1.25 0 -1.984375 -0.765625q-0.734375 -0.765625 -0.734375 -2.15625q0 -1.453125 0.734375 -2.234375q0.75 -0.796875 1.921875 -0.796875q1.15625 0 1.875 0.78125q0.71875 0.765625 0.71875 2.1875q0 0.078125 0 0.25l-4.25 0q0.046875 0.9375 0.515625 1.4375q0.484375 0.5 1.203125 0.5q0.53125 0 0.90625 -0.265625q0.375 -0.28125 0.59375 -0.90625zm-3.171875 -1.5625l3.1875 0q-0.0625 -0.71875 -0.359375 -1.078125q-0.46875 -0.546875 -1.203125 -0.546875q-0.671875 0 -1.125 0.453125q-0.453125 0.4375 -0.5 1.171875zm5.192108 3.40625l0 -5.703125l0.859375 0l0 0.859375q0.34375 -0.609375 0.625 -0.796875q0.28125 -0.1875 0.609375 -0.1875q0.5 0 1.0 0.3125l-0.328125 0.890625q-0.359375 -0.203125 -0.71875 -0.203125q-0.3125 0 -0.5625 0.1875q-0.25 0.1875 -0.359375 0.53125q-0.15625 0.515625 -0.15625 1.125l0 2.984375l-0.96875 0zm5.6736145 -0.859375l0.125 0.84375q-0.40625 0.09375 -0.71875 0.09375q-0.53125 0 -0.828125 -0.171875q-0.28125 -0.171875 -0.40625 -0.4375q-0.109375 -0.265625 -0.109375 -1.140625l0 -3.28125l-0.71875 0l0 -0.75l0.71875 0l0 -1.40625l0.953125 -0.59375l0 2.0l0.984375 0l0 0.75l-0.984375 0l0 3.34375q0 0.40625 0.046875 0.53125q0.0625 0.109375 0.171875 0.1875q0.125 0.0625 0.328125 0.0625q0.171875 0 0.4375 -0.03125zm0.80441284 3.0625l-0.109375 -0.90625q0.3125 0.078125 0.546875 0.078125q0.328125 0 0.515625 -0.109375q0.203125 -0.109375 0.3125 -0.296875q0.09375 -0.140625 0.296875 -0.71875q0.03125 -0.078125 0.09375 -0.234375l-2.171875 -5.71875l1.046875 0l1.1875 3.296875q0.234375 0.640625 0.40625 1.328125q0.171875 -0.671875 0.40625 -1.296875l1.21875 -3.328125l0.96875 0l-2.171875 5.796875q-0.34375 0.9375 -0.546875 1.296875q-0.25 0.484375 -0.59375 0.703125q-0.328125 0.21875 -0.78125 0.21875q-0.28125 0 -0.625 -0.109375zm7.734375 -2.203125l-3.046875 -7.875l1.125 0l2.046875 5.71875q0.25 0.6875 0.421875 1.296875q0.171875 -0.65625 0.421875 -1.296875l2.125 -5.71875l1.0625 0l-3.078125 7.875l-1.078125 0zm8.46698 -0.703125q-0.546875 0.453125 -1.046875 0.640625q-0.484375 0.1875 -1.0625 0.1875q-0.9375 0 -1.453125 -0.453125q-0.5 -0.46875 -0.5 -1.171875q0 -0.421875 0.1875 -0.765625q0.203125 -0.34375 0.5 -0.546875q0.3125 -0.21875 0.703125 -0.328125q0.28125 -0.078125 0.859375 -0.140625q1.171875 -0.140625 1.71875 -0.34375q0.015625 -0.1875 0.015625 -0.25q0 -0.59375 -0.28125 -0.828125q-0.359375 -0.328125 -1.09375 -0.328125q-0.6875 0 -1.015625 0.234375q-0.3125 0.234375 -0.46875 0.84375l-0.953125 -0.125q0.125 -0.609375 0.421875 -0.984375q0.296875 -0.375 0.859375 -0.5625q0.5625 -0.203125 1.296875 -0.203125q0.734375 0 1.1875 0.171875q0.453125 0.171875 0.65625 0.4375q0.21875 0.25 0.3125 0.640625q0.046875 0.25 0.046875 0.90625l0 1.28125q0 1.34375 0.0625 1.703125q0.0625 0.359375 0.25 0.6875l-1.015625 0q-0.15625 -0.296875 -0.1875 -0.703125zm-0.09375 -2.15625q-0.515625 0.21875 -1.578125 0.359375q-0.59375 0.09375 -0.84375 0.203125q-0.234375 0.09375 -0.375 0.3125q-0.140625 0.203125 -0.140625 0.453125q0 0.390625 0.296875 0.65625q0.296875 0.25 0.859375 0.25q0.5625 0 0.984375 -0.25q0.4375 -0.25 0.65625 -0.671875q0.140625 -0.328125 0.140625 -0.96875l0 -0.34375zm2.2702637 2.859375l0 -7.875l0.96875 0l0 7.875l-0.96875 0zm6.1331177 0l0 -0.84375q-0.671875 0.96875 -1.8125 0.96875q-0.5 0 -0.953125 -0.1875q-0.4375 -0.203125 -0.65625 -0.484375q-0.203125 -0.296875 -0.28125 -0.71875q-0.0625 -0.28125 -0.0625 -0.90625l0 -3.53125l0.96875 0l0 3.15625q0 0.765625 0.0625 1.03125q0.09375 0.375 0.375 0.59375q0.296875 0.21875 0.734375 0.21875q0.4375 0 0.8125 -0.21875q0.390625 -0.234375 0.546875 -0.609375q0.15625 -0.390625 0.15625 -1.109375l0 -3.0625l0.96875 0l0 5.703125l-0.859375 0zm6.0827637 -1.84375l1.0 0.125q-0.234375 0.875 -0.875 1.359375q-0.640625 0.484375 -1.625 0.484375q-1.25 0 -1.984375 -0.765625q-0.734375 -0.765625 -0.734375 -2.15625q0 -1.453125 0.734375 -2.234375q0.75 -0.796875 1.921875 -0.796875q1.15625 0 1.875 0.78125q0.71875 0.765625 0.71875 2.1875q0 0.078125 0 0.25l-4.25 0q0.046875 0.9375 0.515625 1.4375q0.484375 0.5 1.203125 0.5q0.53125 0 0.90625 -0.265625q0.375 -0.28125 0.59375 -0.90625zm-3.171875 -1.5625l3.1875 0q-0.0625 -0.71875 -0.359375 -1.078125q-0.46875 -0.546875 -1.203125 -0.546875q-0.671875 0 -1.125 0.453125q-0.453125 0.4375 -0.5 1.171875zm10.012146 5.71875q-0.8125 -1.0 -1.359375 -2.359375q-0.546875 -1.359375 -0.546875 -2.8125q0 -1.265625 0.40625 -2.4375q0.484375 -1.359375 1.5 -2.71875l0.6875 0q-0.65625 1.125 -0.859375 1.609375q-0.328125 0.734375 -0.515625 1.546875q-0.234375 1.0 -0.234375 2.015625q0 2.578125 1.609375 5.15625l-0.6875 0zm1.689209 -2.3125l0 -5.703125l0.859375 0l0 0.859375q0.34375 -0.609375 0.625 -0.796875q0.28125 -0.1875 0.609375 -0.1875q0.5 0 1.0 0.3125l-0.328125 0.890625q-0.359375 -0.203125 -0.71875 -0.203125q-0.3125 0 -0.5625 0.1875q-0.25 0.1875 -0.359375 0.53125q-0.15625 0.515625 -0.15625 1.125l0 2.984375l-0.96875 0zm7.454895 -1.84375l1.0 0.125q-0.234375 0.875 -0.875 1.359375q-0.640625 0.484375 -1.625 0.484375q-1.25 0 -1.984375 -0.765625q-0.734375 -0.765625 -0.734375 -2.15625q0 -1.453125 0.734375 -2.234375q0.75 -0.796875 1.921875 -0.796875q1.15625 0 1.875 0.78125q0.71875 0.765625 0.71875 2.1875q0 0.078125 0 0.25l-4.25 0q0.046875 0.9375 0.515625 1.4375q0.484375 0.5 1.203125 0.5q0.53125 0 0.90625 -0.265625q0.375 -0.28125 0.59375 -0.90625zm-3.171875 -1.5625l3.1875 0q-0.0625 -0.71875 -0.359375 -1.078125q-0.46875 -0.546875 -1.203125 -0.546875q-0.671875 0 -1.125 0.453125q-0.453125 0.4375 -0.5 1.171875zm8.895203 3.40625l0 -0.71875q-0.53125 0.84375 -1.59375 0.84375q-0.671875 0 -1.25 -0.375q-0.578125 -0.375 -0.890625 -1.046875q-0.3125 -0.671875 -0.3125 -1.546875q0 -0.859375 0.28125 -1.546875q0.296875 -0.703125 0.859375 -1.0625q0.5625 -0.375 1.265625 -0.375q0.515625 0 0.921875 0.21875q0.40625 0.21875 0.65625 0.5625l0 -2.828125l0.96875 0l0 7.875l-0.90625 0zm-3.046875 -2.84375q0 1.09375 0.453125 1.640625q0.46875 0.53125 1.09375 0.53125q0.640625 0 1.078125 -0.515625q0.4375 -0.515625 0.4375 -1.578125q0 -1.171875 -0.453125 -1.71875q-0.4375 -0.546875 -1.109375 -0.546875q-0.640625 0 -1.078125 0.53125q-0.421875 0.515625 -0.421875 1.65625zm5.5358887 -1.765625l0 -1.09375l1.09375 0l0 1.09375l-1.09375 0zm0 4.609375l0 -1.09375l1.09375 0l0 1.09375q0 0.609375 -0.21875 0.984375q-0.203125 0.375 -0.671875 0.578125l-0.28125 -0.421875q0.3125 -0.125 0.453125 -0.390625q0.15625 -0.265625 0.171875 -0.75l-0.546875 0zm3.3356323 2.3125l-0.6875 0q1.59375 -2.578125 1.59375 -5.15625q0 -1.015625 -0.21875 -2.0q-0.1875 -0.8125 -0.515625 -1.546875q-0.203125 -0.484375 -0.859375 -1.625l0.6875 0q1.015625 1.359375 1.5 2.71875q0.40625 1.171875 0.40625 2.4375q0 1.453125 -0.5625 2.8125q-0.546875 1.359375 -1.34375 2.359375z" fill-rule="nonzero"></path><path fill="#000000" fill-opacity="0.0" d="m434.6942 167.87007l0 62.960632l25.795288 0" fill-rule="nonzero"></path><path stroke="#000000" stroke-width="2.0" stroke-linejoin="round" stroke-linecap="butt" d="m434.6942 167.87007l0 62.960632l25.795288 0" fill-rule="nonzero"></path><path fill="#b6d7a8" d="m452.66666 60.417324l92.44095 0l0 25.574802l-92.44095 0z" fill-rule="nonzero"></path><path stroke="#b6d7a8" stroke-width="2.0" stroke-linejoin="round" stroke-linecap="butt" d="m452.66666 60.417324l92.44095 0l0 25.574802l-92.44095 0z" fill-rule="nonzero"></path><path fill="#000000" fill-opacity="0.0" d="m418.7349 73.20473l16.965729 0l0 0.06298828l16.955536 0" fill-rule="nonzero"></path><path stroke="#000000" stroke-width="2.0" stroke-linejoin="round" stroke-linecap="butt" d="m418.7349 73.20473l16.965729 0l0 0.06298828l16.955536 0" fill-rule="nonzero"></path><path fill="#b6d7a8" d="m558.20996 102.32021l92.44098 0l0 25.574799l-92.44098 0z" fill-rule="nonzero"></path><path stroke="#b6d7a8" stroke-width="2.0" stroke-linejoin="round" stroke-linecap="butt" d="m558.20996 102.32021l92.44098 0l0 25.574799l-92.44098 0z" fill-rule="nonzero"></path><path fill="#000000" fill-opacity="0.0" d="m421.49738 115.1063l68.35675 0l0 0.06298828l68.367676 0" fill-rule="nonzero"></path><path stroke="#000000" stroke-width="2.0" stroke-linejoin="round" stroke-linecap="butt" d="m421.49738 115.1063l68.35675 0l0 0.06298828l68.367676 0" fill-rule="nonzero"></path><path fill="#ff0000" d="m668.2887 94.74803l0 0c0 -6.9579163 5.6052856 -12.598427 12.519714 -12.598427l0 0c3.3204346 0 6.504822 1.3273315 8.852722 3.6899948c2.3479004 2.3626633 3.6669312 5.5671234 3.6669312 8.908432l0 0c0 6.9579163 -5.6052246 12.598427 -12.519653 12.598427l0 0c-6.9144287 0 -12.519714 -5.6405106 -12.519714 -12.598427z" fill-rule="nonzero"></path><path stroke="#000000" stroke-width="2.0" stroke-linejoin="round" stroke-linecap="butt" d="m668.2887 94.74803l0 0c0 -6.9579163 5.6052856 -12.598427 12.519714 -12.598427l0 0c3.3204346 0 6.504822 1.3273315 8.852722 3.6899948c2.3479004 2.3626633 3.6669312 5.5671234 3.6669312 8.908432l0 0c0 6.9579163 -5.6052246 12.598427 -12.519653 12.598427l0 0c-6.9144287 0 -12.519714 -5.6405106 -12.519714 -12.598427z" fill-rule="nonzero"></path><path fill="#000000" fill-opacity="0.0" d="m545.1076 73.20473l135.71655 0l0 8.944878" fill-rule="nonzero"></path><path stroke="#000000" stroke-width="2.0" stroke-linejoin="round" stroke-linecap="butt" d="m545.1076 73.20473l135.71655 0l0 8.944878" fill-rule="nonzero"></path><path fill="#000000" fill-opacity="0.0" d="m650.65094 115.10761l30.173218 0l0 -7.7480316" fill-rule="nonzero"></path><path stroke="#000000" stroke-width="2.0" stroke-linejoin="round" stroke-linecap="butt" d="m650.65094 115.10761l30.173218 0l0 -7.7480316" fill-rule="nonzero"></path><path fill="#000000" fill-opacity="0.0" d="m604.4304 127.89501c0 17.275597 105.82678 34.551186 211.65356 34.551186" fill-rule="nonzero"></path><path stroke="#ff0000" stroke-width="2.0" stroke-linejoin="round" stroke-linecap="butt" d="m604.4304 127.89501c0 8.6377945 26.456726 17.275597 66.141785 23.753944c19.842468 3.2391663 42.992126 5.9384766 67.79523 7.828003c12.401611 0.9447479 25.216553 1.6870575 38.23822 2.1931763c6.510803 0.25306702 13.073303 0.44708252 19.661682 0.5778198c3.2941895 0.06538391 6.5947876 0.1149292 9.898621 0.14814758c0.82598877 0.00831604 1.6520996 0.015594482 2.4784546 0.021850586l0.5853882 0.003692627" fill-rule="evenodd"></path><path fill="#ff0000" stroke="#ff0000" stroke-width="2.0" stroke-linecap="butt" d="m809.22986 162.42165l-2.2572021 2.2410889l6.187561 -2.2270203l-6.1714478 -2.2712708z" fill-rule="evenodd"></path><path fill="#000000" fill-opacity="0.0" d="m9.246719 48.385826l229.6063 0l0 106.67716l-229.6063 0z" fill-rule="nonzero"></path><path fill="#000000" d="m27.80922 71.899574l-2.078125 0l-0.34375 3.40625l-1.375 0l0.34375 -3.40625l-2.359375 0l-0.34375 3.40625l-1.375 0l0.34375 -3.40625l-1.96875 0l0 -1.203125l2.09375 0l0.328125 -3.25l-1.953125 0l0 -1.203125l2.078125 0l0.3125 -3.0625l1.359375 0l-0.3125 3.0625l2.375 0l0.3125 -3.0625l1.375 0l-0.328125 3.0625l2.0 0l0 1.203125l-2.109375 0l-0.328125 3.25l1.953125 0l0 1.203125zm-3.3125 -1.203125l0.3125 -3.25l-2.375 0l-0.3125 3.25l2.375 0zm13.366669 -0.546875q0 0.34375 -0.015625 0.578125q-0.015625 0.234375 -0.03125 0.4375l-6.53125 0q0 1.4375 0.796875 2.203125q0.796875 0.765625 2.296875 0.765625q0.40625 0 0.8125 -0.03125q0.40625 -0.046875 0.78125 -0.09375q0.390625 -0.0625 0.734375 -0.125q0.34375 -0.078125 0.640625 -0.15625l0 1.328125q-0.65625 0.1875 -1.484375 0.296875q-0.828125 0.125 -1.71875 0.125q-1.203125 0 -2.0625 -0.328125q-0.859375 -0.328125 -1.421875 -0.9375q-0.546875 -0.625 -0.8125 -1.515625q-0.265625 -0.890625 -0.265625 -2.03125q0 -0.984375 0.28125 -1.859375q0.296875 -0.875 0.828125 -1.53125q0.546875 -0.671875 1.328125 -1.0625q0.796875 -0.390625 1.796875 -0.390625q0.984375 0 1.734375 0.3125q0.75 0.296875 1.265625 0.859375q0.515625 0.5625 0.78125 1.375q0.265625 0.796875 0.265625 1.78125zm-1.6875 -0.21875q0.03125 -0.625 -0.125 -1.140625q-0.140625 -0.515625 -0.453125 -0.890625q-0.3125 -0.375 -0.78125 -0.578125q-0.453125 -0.203125 -1.078125 -0.203125q-0.515625 0 -0.953125 0.203125q-0.4375 0.203125 -0.765625 0.578125q-0.3125 0.359375 -0.5 0.890625q-0.1875 0.515625 -0.234375 1.140625l4.890625 0zm4.4447937 -3.9375l1.484375 0l0.046875 1.71875q0.828125 -1.0 1.625 -1.4375q0.796875 -0.453125 1.625 -0.453125q1.4375 0 2.1875 0.9375q0.75 0.9375 0.6875 2.78125l-1.625 0q0.015625 -1.21875 -0.375 -1.765625q-0.375 -0.5625 -1.109375 -0.5625q-0.328125 0 -0.65625 0.125q-0.328125 0.109375 -0.6875 0.375q-0.34375 0.25 -0.734375 0.65625q-0.390625 0.390625 -0.828125 0.953125l0 5.984375l-1.640625 0l0 -9.3125zm10.257294 0l1.484375 0l0.046875 1.71875q0.828125 -1.0 1.625 -1.4375q0.796875 -0.453125 1.625 -0.453125q1.4375 0 2.1875 0.9375q0.75 0.9375 0.6875 2.78125l-1.625 0q0.015625 -1.21875 -0.375 -1.765625q-0.375 -0.5625 -1.109375 -0.5625q-0.328125 0 -0.65625 0.125q-0.328125 0.109375 -0.6875 0.375q-0.34375 0.25 -0.734375 0.65625q-0.390625 0.390625 -0.828125 0.953125l0 5.984375l-1.640625 0l0 -9.3125z" fill-rule="nonzero"></path><path fill="#000000" d="m26.574844 101.1027l-0.6875 0q-1.796875 0 -2.671875 -0.84375q-0.875 -0.828125 -0.875 -2.53125l0 -3.203125q0 -0.453125 -0.109375 -0.796875q-0.09375 -0.359375 -0.34375 -0.609375q-0.25 -0.25 -0.671875 -0.375q-0.421875 -0.125 -1.0625 -0.125l-0.40625 0l0 -1.296875l0.40625 0q0.671875 0 1.09375 -0.109375q0.4375 -0.109375 0.671875 -0.328125q0.25 -0.234375 0.328125 -0.578125q0.09375 -0.359375 0.09375 -0.84375l0 -2.203125q0 -0.78125 0.1875 -1.40625q0.1875 -0.625 0.609375 -1.0625q0.421875 -0.4375 1.09375 -0.671875q0.671875 -0.25 1.65625 -0.25l0.6875 0l0 1.296875l-0.546875 0q-2.15625 0 -2.15625 2.09375l0 2.15625q0 2.265625 -1.953125 2.5625q1.96875 0.1875 1.96875 2.53125l0 3.171875q0 2.125 2.140625 2.125l0.546875 0l0 1.296875z" fill-rule="nonzero"></path><path fill="#000000" d="m48.198807 114.4777q0 1.15625 -0.328125 2.078125q-0.3125 0.90625 -0.90625 1.546875q-0.578125 0.640625 -1.421875 0.984375q-0.84375 0.328125 -1.90625 0.328125q-0.828125 0 -1.6875 -0.15625q-0.859375 -0.15625 -1.703125 -0.5l0 -12.5625l1.609375 0l0 3.609375l-0.0625 1.71875q0.6875 -0.9375 1.484375 -1.3125q0.796875 -0.390625 1.703125 -0.390625q0.796875 0 1.390625 0.34375q0.609375 0.328125 1.015625 0.9375q0.40625 0.609375 0.609375 1.46875q0.203125 0.859375 0.203125 1.90625zm-1.640625 0.078125q0 -0.734375 -0.109375 -1.34375q-0.109375 -0.609375 -0.34375 -1.046875q-0.234375 -0.4375 -0.59375 -0.6875q-0.359375 -0.25 -0.859375 -0.25q-0.3125 0 -0.625 0.109375q-0.3125 0.09375 -0.65625 0.328125q-0.328125 0.21875 -0.703125 0.59375q-0.375 0.375 -0.8125 0.9375l0 4.515625q0.484375 0.1875 0.96875 0.296875q0.5 0.09375 0.9375 0.09375q0.5625 0 1.0625 -0.171875q0.5 -0.171875 0.890625 -0.578125q0.390625 -0.421875 0.609375 -1.09375q0.234375 -0.6875 0.234375 -1.703125zm12.054169 0.015625q0 1.09375 -0.3125 2.0q-0.296875 0.890625 -0.875 1.546875q-0.578125 0.640625 -1.40625 1.0q-0.828125 0.359375 -1.875 0.359375q-1.0 0 -1.796875 -0.3125q-0.78125 -0.3125 -1.34375 -0.90625q-0.546875 -0.609375 -0.84375 -1.5q-0.28125 -0.890625 -0.28125 -2.0625q0 -1.078125 0.296875 -1.96875q0.3125 -0.90625 0.875 -1.546875q0.578125 -0.640625 1.40625 -1.0q0.828125 -0.359375 1.875 -0.359375q1.0 0 1.796875 0.3125q0.796875 0.3125 1.34375 0.921875q0.5625 0.59375 0.84375 1.484375q0.296875 0.890625 0.296875 2.03125zm-1.65625 0.078125q0 -0.859375 -0.1875 -1.5q-0.1875 -0.65625 -0.546875 -1.078125q-0.34375 -0.4375 -0.859375 -0.65625q-0.5 -0.21875 -1.125 -0.21875q-0.71875 0 -1.234375 0.28125q-0.515625 0.28125 -0.84375 0.765625q-0.328125 0.46875 -0.484375 1.09375q-0.15625 0.625 -0.15625 1.3125q0 0.859375 0.1875 1.515625q0.203125 0.640625 0.546875 1.078125q0.359375 0.421875 0.859375 0.640625q0.5 0.21875 1.125 0.21875q0.734375 0 1.25 -0.28125q0.515625 -0.28125 0.84375 -0.75q0.328125 -0.46875 0.46875 -1.09375q0.15625 -0.640625 0.15625 -1.328125zm4.1791687 -4.65625l1.484375 0l0.046875 1.71875q0.828125 -1.0 1.625 -1.4375q0.796875 -0.453125 1.625 -0.453125q1.4375 0 2.1875 0.9375q0.75 0.9375 0.6875 2.78125l-1.625 0q0.015625 -1.21875 -0.375 -1.765625q-0.375 -0.5625 -1.109375 -0.5625q-0.328125 0 -0.65625 0.125q-0.328125 0.109375 -0.6875 0.375q-0.34375 0.25 -0.734375 0.65625q-0.390625 0.390625 -0.828125 0.953125l0 5.984375l-1.640625 0l0 -9.3125zm9.413544 4.84375q0 -1.1875 0.3125 -2.109375q0.328125 -0.921875 0.921875 -1.546875q0.609375 -0.640625 1.4375 -0.96875q0.84375 -0.328125 1.875 -0.328125q0.453125 0 0.875 0.0625q0.4375 0.046875 0.859375 0.171875l0 -3.921875l1.625 0l0 13.109375l-1.453125 0l-0.0625 -1.765625q-0.671875 0.984375 -1.46875 1.46875q-0.78125 0.46875 -1.703125 0.46875q-0.796875 0 -1.40625 -0.328125q-0.59375 -0.34375 -1.0 -0.953125q-0.40625 -0.609375 -0.609375 -1.453125q-0.203125 -0.859375 -0.203125 -1.90625zm1.640625 -0.09375q0 1.6875 0.5 2.515625q0.5 0.828125 1.40625 0.828125q0.609375 0 1.296875 -0.546875q0.6875 -0.546875 1.4375 -1.625l0 -4.3125q-0.40625 -0.1875 -0.890625 -0.28125q-0.484375 -0.109375 -0.953125 -0.109375q-1.3125 0 -2.0625 0.859375q-0.734375 0.84375 -0.734375 2.671875zm16.960419 -0.59375q0 0.34375 -0.015625 0.578125q-0.015625 0.234375 -0.03125 0.4375l-6.53125 0q0 1.4375 0.796875 2.203125q0.796875 0.765625 2.296875 0.765625q0.40625 0 0.8125 -0.03125q0.40625 -0.046875 0.78125 -0.09375q0.390625 -0.0625 0.734375 -0.125q0.34375 -0.078125 0.640625 -0.15625l0 1.328125q-0.65625 0.1875 -1.484375 0.296875q-0.828125 0.125 -1.71875 0.125q-1.203125 0 -2.0625 -0.328125q-0.859375 -0.328125 -1.421875 -0.9375q-0.546875 -0.625 -0.8125 -1.515625q-0.265625 -0.890625 -0.265625 -2.03125q0 -0.984375 0.28125 -1.859375q0.296875 -0.875 0.828125 -1.53125q0.546875 -0.671875 1.328125 -1.0625q0.796875 -0.390625 1.796875 -0.390625q0.984375 0 1.734375 0.3125q0.75 0.296875 1.265625 0.859375q0.515625 0.5625 0.78125 1.375q0.265625 0.796875 0.265625 1.78125zm-1.6875 -0.21875q0.03125 -0.625 -0.125 -1.140625q-0.140625 -0.515625 -0.453125 -0.890625q-0.3125 -0.375 -0.78125 -0.578125q-0.453125 -0.203125 -1.078125 -0.203125q-0.515625 0 -0.953125 0.203125q-0.4375 0.203125 -0.765625 0.578125q-0.3125 0.359375 -0.5 0.890625q-0.1875 0.515625 -0.234375 1.140625l4.890625 0zm4.4447937 -3.9375l1.484375 0l0.046875 1.71875q0.828125 -1.0 1.625 -1.4375q0.796875 -0.453125 1.625 -0.453125q1.4375 0 2.1875 0.9375q0.75 0.9375 0.6875 2.78125l-1.625 0q0.015625 -1.21875 -0.375 -1.765625q-0.375 -0.5625 -1.109375 -0.5625q-0.328125 0 -0.65625 0.125q-0.328125 0.109375 -0.6875 0.375q-0.34375 0.25 -0.734375 0.65625q-0.390625 0.390625 -0.828125 0.953125l0 5.984375l-1.640625 0l0 -9.3125zm16.397919 5.015625l-5.546875 0l0 -1.515625l5.546875 0l0 1.515625zm10.976044 3.953125q-0.625 0.234375 -1.296875 0.34375q-0.65625 0.125 -1.359375 0.125q-2.21875 0 -3.40625 -1.1875q-1.1875 -1.203125 -1.1875 -3.5q0 -1.109375 0.34375 -2.0q0.34375 -0.90625 0.953125 -1.546875q0.625 -0.640625 1.484375 -0.984375q0.875 -0.34375 1.90625 -0.34375q0.734375 0 1.359375 0.109375q0.625 0.09375 1.203125 0.3125l0 1.546875q-0.59375 -0.3125 -1.234375 -0.453125q-0.625 -0.15625 -1.28125 -0.15625q-0.625 0 -1.1875 0.25q-0.546875 0.234375 -0.96875 0.6875q-0.40625 0.4375 -0.65625 1.078125q-0.234375 0.640625 -0.234375 1.4375q0 1.6875 0.8125 2.53125q0.828125 0.84375 2.28125 0.84375q0.65625 0 1.265625 -0.140625q0.625 -0.15625 1.203125 -0.453125l0 1.5zm11.132294 -4.390625q0 1.09375 -0.3125 2.0q-0.296875 0.890625 -0.875 1.546875q-0.578125 0.640625 -1.40625 1.0q-0.828125 0.359375 -1.875 0.359375q-1.0 0 -1.796875 -0.3125q-0.78125 -0.3125 -1.34375 -0.90625q-0.546875 -0.609375 -0.84375 -1.5q-0.28125 -0.890625 -0.28125 -2.0625q0 -1.078125 0.296875 -1.96875q0.3125 -0.90625 0.875 -1.546875q0.578125 -0.640625 1.40625 -1.0q0.828125 -0.359375 1.875 -0.359375q1.0 0 1.796875 0.3125q0.796875 0.3125 1.34375 0.921875q0.5625 0.59375 0.84375 1.484375q0.296875 0.890625 0.296875 2.03125zm-1.65625 0.078125q0 -0.859375 -0.1875 -1.5q-0.1875 -0.65625 -0.546875 -1.078125q-0.34375 -0.4375 -0.859375 -0.65625q-0.5 -0.21875 -1.125 -0.21875q-0.71875 0 -1.234375 0.28125q-0.515625 0.28125 -0.84375 0.765625q-0.328125 0.46875 -0.484375 1.09375q-0.15625 0.625 -0.15625 1.3125q0 0.859375 0.1875 1.515625q0.203125 0.640625 0.546875 1.078125q0.359375 0.421875 0.859375 0.640625q0.5 0.21875 1.125 0.21875q0.734375 0 1.25 -0.28125q0.515625 -0.28125 0.84375 -0.75q0.328125 -0.46875 0.46875 -1.09375q0.15625 -0.640625 0.15625 -1.328125zm6.9760437 -7.125l-2.75 0l0 -1.328125l4.390625 0l0 11.765625l2.765625 0l0 1.34375l-7.46875 0l0 -1.34375l3.0625 0l0 -10.4375zm15.194794 7.046875q0 1.09375 -0.3125 2.0q-0.296875 0.890625 -0.875 1.546875q-0.578125 0.640625 -1.40625 1.0q-0.828125 0.359375 -1.875 0.359375q-1.0 0 -1.796875 -0.3125q-0.78125 -0.3125 -1.34375 -0.90625q-0.546875 -0.609375 -0.84375 -1.5q-0.28125 -0.890625 -0.28125 -2.0625q0 -1.078125 0.296875 -1.96875q0.3125 -0.90625 0.875 -1.546875q0.578125 -0.640625 1.40625 -1.0q0.828125 -0.359375 1.875 -0.359375q1.0 0 1.796875 0.3125q0.796875 0.3125 1.34375 0.921875q0.5625 0.59375 0.84375 1.484375q0.296875 0.890625 0.296875 2.03125zm-1.65625 0.078125q0 -0.859375 -0.1875 -1.5q-0.1875 -0.65625 -0.546875 -1.078125q-0.34375 -0.4375 -0.859375 -0.65625q-0.5 -0.21875 -1.125 -0.21875q-0.71875 0 -1.234375 0.28125q-0.515625 0.28125 -0.84375 0.765625q-0.328125 0.46875 -0.484375 1.09375q-0.15625 0.625 -0.15625 1.3125q0 0.859375 0.1875 1.515625q0.203125 0.640625 0.546875 1.078125q0.359375 0.421875 0.859375 0.640625q0.5 0.21875 1.125 0.21875q0.734375 0 1.25 -0.28125q0.515625 -0.28125 0.84375 -0.75q0.328125 -0.46875 0.46875 -1.09375q0.15625 -0.640625 0.15625 -1.328125zm4.1791687 -4.65625l1.484375 0l0.046875 1.71875q0.828125 -1.0 1.625 -1.4375q0.796875 -0.453125 1.625 -0.453125q1.4375 0 2.1875 0.9375q0.75 0.9375 0.6875 2.78125l-1.625 0q0.015625 -1.21875 -0.375 -1.765625q-0.375 -0.5625 -1.109375 -0.5625q-0.328125 0 -0.65625 0.125q-0.328125 0.109375 -0.6875 0.375q-0.34375 0.25 -0.734375 0.65625q-0.390625 0.390625 -0.828125 0.953125l0 5.984375l-1.640625 0l0 -9.3125zm13.616669 -0.171875q0.296875 0 0.546875 0.125q0.265625 0.109375 0.453125 0.3125q0.203125 0.1875 0.3125 0.453125q0.125 0.25 0.125 0.546875q0 0.296875 -0.125 0.546875q-0.109375 0.25 -0.3125 0.453125q-0.1875 0.1875 -0.453125 0.296875q-0.25 0.109375 -0.546875 0.109375q-0.296875 0 -0.546875 -0.109375q-0.25 -0.109375 -0.453125 -0.296875q-0.1875 -0.203125 -0.3125 -0.453125q-0.109375 -0.25 -0.109375 -0.546875q0 -0.296875 0.109375 -0.546875q0.125 -0.265625 0.3125 -0.453125q0.203125 -0.203125 0.453125 -0.3125q0.25 -0.125 0.546875 -0.125zm0 6.796875q0.296875 0 0.546875 0.125q0.265625 0.109375 0.453125 0.3125q0.203125 0.1875 0.3125 0.453125q0.125 0.25 0.125 0.546875q0 0.296875 -0.125 0.546875q-0.109375 0.25 -0.3125 0.453125q-0.1875 0.1875 -0.453125 0.296875q-0.25 0.125 -0.546875 0.125q-0.296875 0 -0.546875 -0.125q-0.25 -0.109375 -0.453125 -0.296875q-0.1875 -0.203125 -0.3125 -0.453125q-0.109375 -0.25 -0.109375 -0.546875q0 -0.296875 0.109375 -0.546875q0.125 -0.265625 0.3125 -0.453125q0.203125 -0.203125 0.453125 -0.3125q0.25 -0.125 0.546875 -0.125zm17.155212 -6.625l1.484375 0l0.046875 1.71875q0.828125 -1.0 1.625 -1.4375q0.796875 -0.453125 1.625 -0.453125q1.4375 0 2.1875 0.9375q0.75 0.9375 0.6875 2.78125l-1.625 0q0.015625 -1.21875 -0.375 -1.765625q-0.375 -0.5625 -1.109375 -0.5625q-0.328125 0 -0.65625 0.125q-0.328125 0.109375 -0.6875 0.375q-0.34375 0.25 -0.734375 0.65625q-0.390625 0.390625 -0.828125 0.953125l0 5.984375l-1.640625 0l0 -9.3125zm17.757294 4.15625q0 0.34375 -0.015625 0.578125q-0.015625 0.234375 -0.03125 0.4375l-6.53125 0q0 1.4375 0.796875 2.203125q0.796875 0.765625 2.296875 0.765625q0.40625 0 0.8125 -0.03125q0.40625 -0.046875 0.78125 -0.09375q0.390625 -0.0625 0.734375 -0.125q0.34375 -0.078125 0.640625 -0.15625l0 1.328125q-0.65625 0.1875 -1.484375 0.296875q-0.828125 0.125 -1.71875 0.125q-1.203125 0 -2.0625 -0.328125q-0.859375 -0.328125 -1.421875 -0.9375q-0.546875 -0.625 -0.8125 -1.515625q-0.265625 -0.890625 -0.265625 -2.03125q0 -0.984375 0.28125 -1.859375q0.296875 -0.875 0.828125 -1.53125q0.546875 -0.671875 1.328125 -1.0625q0.796875 -0.390625 1.796875 -0.390625q0.984375 0 1.734375 0.3125q0.75 0.296875 1.265625 0.859375q0.515625 0.5625 0.78125 1.375q0.265625 0.796875 0.265625 1.78125zm-1.6875 -0.21875q0.03125 -0.625 -0.125 -1.140625q-0.140625 -0.515625 -0.453125 -0.890625q-0.3125 -0.375 -0.78125 -0.578125q-0.453125 -0.203125 -1.078125 -0.203125q-0.515625 0 -0.953125 0.203125q-0.4375 0.203125 -0.765625 0.578125q-0.3125 0.359375 -0.5 0.890625q-0.1875 0.515625 -0.234375 1.140625l4.890625 0zm3.6010437 0.90625q0 -1.1875 0.3125 -2.109375q0.328125 -0.921875 0.921875 -1.546875q0.609375 -0.640625 1.4375 -0.96875q0.84375 -0.328125 1.875 -0.328125q0.453125 0 0.875 0.0625q0.4375 0.046875 0.859375 0.171875l0 -3.921875l1.625 0l0 13.109375l-1.453125 0l-0.0625 -1.765625q-0.671875 0.984375 -1.46875 1.46875q-0.78125 0.46875 -1.703125 0.46875q-0.796875 0 -1.40625 -0.328125q-0.59375 -0.34375 -1.0 -0.953125q-0.40625 -0.609375 -0.609375 -1.453125q-0.203125 -0.859375 -0.203125 -1.90625zm1.640625 -0.09375q0 1.6875 0.5 2.515625q0.5 0.828125 1.40625 0.828125q0.609375 0 1.296875 -0.546875q0.6875 -0.546875 1.4375 -1.625l0 -4.3125q-0.40625 -0.1875 -0.890625 -0.28125q-0.484375 -0.109375 -0.953125 -0.109375q-1.3125 0 -2.0625 0.859375q-0.734375 0.84375 -0.734375 2.671875zm9.913544 6.46875q0.484375 0.015625 0.921875 -0.09375q0.453125 -0.09375 0.78125 -0.296875q0.34375 -0.203125 0.546875 -0.5q0.203125 -0.296875 0.203125 -0.671875q0 -0.390625 -0.140625 -0.625q-0.125 -0.25 -0.296875 -0.453125q-0.15625 -0.203125 -0.296875 -0.4375q-0.140625 -0.234375 -0.140625 -0.625q0 -0.1875 0.078125 -0.390625q0.078125 -0.21875 0.21875 -0.390625q0.15625 -0.1875 0.390625 -0.296875q0.25 -0.109375 0.578125 -0.109375q0.3125 0 0.609375 0.140625q0.3125 0.125 0.53125 0.40625q0.234375 0.28125 0.359375 0.703125q0.140625 0.40625 0.140625 0.96875q0 0.78125 -0.28125 1.484375q-0.28125 0.703125 -0.84375 1.25q-0.5625 0.5625 -1.40625 0.875q-0.828125 0.328125 -1.953125 0.328125l0 -1.265625zm2.90625 -11.390625q0.296875 0 0.546875 0.125q0.265625 0.109375 0.453125 0.3125q0.203125 0.1875 0.3125 0.453125q0.125 0.25 0.125 0.546875q0 0.296875 -0.125 0.546875q-0.109375 0.25 -0.3125 0.453125q-0.1875 0.1875 -0.453125 0.296875q-0.25 0.109375 -0.546875 0.109375q-0.296875 0 -0.546875 -0.109375q-0.25 -0.109375 -0.453125 -0.296875q-0.1875 -0.203125 -0.3125 -0.453125q-0.109375 -0.25 -0.109375 -0.546875q0 -0.296875 0.109375 -0.546875q0.125 -0.265625 0.3125 -0.453125q0.203125 -0.203125 0.453125 -0.3125q0.25 -0.125 0.546875 -0.125z" fill-rule="nonzero"></path><path fill="#000000" d="m20.37172 127.868324l0.6875 0q1.796875 0 2.65625 0.8437576q0.875 0.84375 0.875 2.546875l0 2.140625q0 0.453125 0.09375 0.8125q0.109375 0.359375 0.359375 0.609375q0.265625 0.234375 0.6875 0.375q0.421875 0.125 1.0625 0.125l0.40625 0l0 1.296875l-0.40625 0q-0.671875 0 -1.109375 0.109375q-0.421875 0.109375 -0.671875 0.34375q-0.234375 0.21875 -0.328125 0.578125q-0.09375 0.34375 -0.09375 0.828125l0 3.25q0 0.78125 -0.1875 1.40625q-0.1875 0.625 -0.609375 1.0625q-0.40625 0.4375 -1.09375 0.671875q-0.671875 0.234375 -1.640625 0.234375l-0.6875 0l0 -1.296875l0.5625 0q2.140625 0 2.140625 -2.078125l0 -3.21875q0 -2.265625 1.953125 -2.53125q-1.96875 -0.21875 -1.96875 -2.5625l0 -2.125q0 -2.125 -2.125 -2.125l-0.5625 0l0 -1.2968826z" fill-rule="nonzero"></path><path fill="#000000" fill-opacity="0.0" d="m292.3727 73.20473l-220.72443 0" fill-rule="nonzero"></path><path stroke="#3c78d8" stroke-width="2.0" stroke-linejoin="round" stroke-linecap="butt" d="m292.3727 73.20473l-208.72443 0" fill-rule="evenodd"></path><path fill="#3c78d8" stroke="#3c78d8" stroke-width="2.0" stroke-linecap="butt" d="m83.64829 69.90126l-9.076195 3.3034668l9.076195 3.3034592z" fill-rule="evenodd"></path><path fill="#000000" fill-opacity="0.0" d="m384.99344 155.08267l-229.35432 -25.637787" fill-rule="nonzero"></path><path stroke="#3c78d8" stroke-width="2.0" stroke-linejoin="round" stroke-linecap="butt" d="m384.99344 155.08267l-217.4286 -24.304703" fill-rule="evenodd"></path><path fill="#3c78d8" stroke="#3c78d8" stroke-width="2.0" stroke-linecap="butt" d="m167.93181 127.49495l-9.386993 2.2747345l8.65303 4.2913055z" fill-rule="evenodd"></path></g></svg>

