<?xml version="1.0" encoding="UTF-8"?>

<svg version="1.2" baseProfile="tiny" width="16mm" height="16mm" viewBox="0 0 1600 1600" preserveAspectRatio="xMidYMid" fill-rule="evenodd" stroke-width="28.222" stroke-linejoin="round" xmlns="http://www.w3.org/2000/svg" xmlns:xlink="http://www.w3.org/1999/xlink" xml:space="preserve">
 <g visibility="visible" id="MasterSlide_1_WEB-Draw-klein">
  <desc>Master slide
  </desc>
  <rect fill="none" stroke="none" x="0" y="0" width="1600" height="1600"/>
 </g>
 <g visibility="visible" id="Slide_1_page1">
  <g>
   <path fill="rgb(255,204,0)" stroke="none" d="M 797,49 C 1222,49 1547,374 1547,799 1547,1224 1222,1549 797,1549 372,1549 47,1224 47,799 47,374 372,49 797,49 Z"/>
   <path fill="none" stroke="rgb(51,51,51)" id="Drawing_1_0" stroke-width="81" stroke-linejoin="round" d="M 797,49 C 1222,49 1547,374 1547,799 1547,1224 1222,1549 797,1549 372,1549 47,1224 47,799 47,374 372,49 797,49 Z"/>
   <rect fill="none" stroke="none" x="47" y="49" width="1501" height="1501"/>
  </g>
 </g>
</svg>